<svg width="10000" height="3409" viewBox="0 0 10000 3409" fill="none" xmlns="http://www.w3.org/2000/svg">
                <path d="M10026.6 2730.08V3168H10025.9C9999.86 3168 9974.84 3157.67 9956.39 3139.28C9937.94 3120.88 9927.57 3095.94 9927.55 3069.92V2632H9928.18C9954.27 2632 9979.3 2642.33 9997.76 2660.72C10016.2 2679.11 10026.6 2704.06 10026.6 2730.08V2730.08ZM10179.5 2652.59C10153.4 2652.59 10128.4 2662.92 10109.9 2681.31C10091.5 2699.7 10081.1 2724.65 10081.1 2750.67V2969.12H10081.8C10107.7 2969.11 10132.5 2958.93 10150.8 2940.79C10169.2 2922.66 10179.7 2898.03 10180 2872.24V2872.24V2652.65L10179.5 2652.59ZM9774.63 2652.59H9774V2872.24C9774.33 2898.05 9784.84 2922.69 9803.26 2940.82C9821.68 2958.96 9846.51 2969.13 9872.39 2969.12H9873.02V2750.67C9873.02 2737.78 9870.48 2725.02 9865.53 2713.12C9860.59 2701.22 9853.34 2690.4 9844.2 2681.29C9835.06 2672.18 9824.22 2664.96 9812.28 2660.03C9800.34 2655.11 9787.55 2652.58 9774.63 2652.59V2652.59Z" fill="#011B32"/>
                <path d="M9437.64 2730.08V3168H9436.94C9410.86 3168 9385.84 3157.67 9367.39 3139.28C9348.94 3120.88 9338.57 3095.94 9338.55 3069.92V2632H9339.18C9365.27 2632 9390.3 2642.33 9408.76 2660.72C9427.22 2679.11 9437.6 2704.06 9437.64 2730.08V2730.08ZM9590.5 2652.59C9564.41 2652.59 9539.39 2662.92 9520.94 2681.31C9502.49 2699.7 9492.12 2724.65 9492.1 2750.67V2969.12H9492.8C9518.65 2969.11 9543.46 2958.93 9561.84 2940.79C9580.23 2922.66 9590.7 2898.03 9591 2872.24V2872.24V2652.65L9590.5 2652.59ZM9185.63 2652.59H9185V2872.24C9185.33 2898.05 9195.84 2922.69 9214.26 2940.82C9232.68 2958.96 9257.51 2969.13 9283.39 2969.12H9284.02V2750.67C9284.02 2737.78 9281.48 2725.02 9276.53 2713.12C9271.59 2701.22 9264.34 2690.4 9255.2 2681.29C9246.06 2672.18 9235.22 2664.96 9223.28 2660.03C9211.34 2655.11 9198.55 2652.58 9185.63 2652.59V2652.59Z" fill="#011B32"/>
                <path d="M8848.64 2730.08V3168H8847.94C8821.86 3168 8796.84 3157.67 8778.39 3139.28C8759.94 3120.88 8749.57 3095.94 8749.55 3069.92V2632H8750.18C8776.27 2632 8801.3 2642.33 8819.76 2660.72C8838.22 2679.11 8848.6 2704.06 8848.64 2730.08V2730.08ZM9001.5 2652.59C8975.41 2652.59 8950.39 2662.92 8931.94 2681.31C8913.49 2699.7 8903.12 2724.65 8903.1 2750.67V2969.12H8903.8C8929.65 2969.11 8954.46 2958.93 8972.84 2940.79C8991.23 2922.66 9001.7 2898.03 9002 2872.24V2872.24V2652.65L9001.5 2652.59ZM8596.63 2652.59H8596V2872.24C8596.33 2898.05 8606.84 2922.69 8625.26 2940.82C8643.68 2958.96 8668.51 2969.13 8694.39 2969.12H8695.02V2750.67C8695.02 2737.78 8692.48 2725.02 8687.53 2713.12C8682.59 2701.22 8675.34 2690.4 8666.2 2681.29C8657.06 2672.18 8646.22 2664.96 8634.28 2660.03C8622.34 2655.11 8609.55 2652.58 8596.63 2652.59V2652.59Z" fill="#011B32"/>
                <path d="M8259.64 2730.08V3168H8258.94C8232.86 3168 8207.84 3157.67 8189.39 3139.28C8170.94 3120.88 8160.57 3095.94 8160.55 3069.92V2632H8161.18C8187.27 2632 8212.3 2642.33 8230.76 2660.72C8249.22 2679.11 8259.6 2704.06 8259.64 2730.08V2730.08ZM8412.5 2652.59C8386.41 2652.59 8361.39 2662.92 8342.94 2681.31C8324.49 2699.7 8314.12 2724.65 8314.1 2750.67V2969.12H8314.8C8340.65 2969.11 8365.46 2958.93 8383.84 2940.79C8402.23 2922.66 8412.7 2898.03 8413 2872.24V2872.24V2652.65L8412.5 2652.59ZM8007.63 2652.59H8007V2872.24C8007.33 2898.05 8017.84 2922.69 8036.26 2940.82C8054.68 2958.96 8079.51 2969.13 8105.39 2969.12H8106.02V2750.67C8106.02 2737.78 8103.48 2725.02 8098.53 2713.12C8093.59 2701.22 8086.34 2690.4 8077.2 2681.29C8068.06 2672.18 8057.22 2664.96 8045.28 2660.03C8033.34 2655.11 8020.55 2652.58 8007.63 2652.59V2652.59Z" fill="#011B32"/>
                <path d="M7670.64 2730.08V3168H7669.94C7643.86 3168 7618.84 3157.67 7600.39 3139.28C7581.94 3120.88 7571.57 3095.94 7571.55 3069.92V2632H7572.18C7598.27 2632 7623.3 2642.33 7641.76 2660.72C7660.22 2679.11 7670.6 2704.06 7670.64 2730.08V2730.08ZM7823.5 2652.59C7797.41 2652.59 7772.39 2662.92 7753.94 2681.31C7735.49 2699.7 7725.12 2724.65 7725.1 2750.67V2969.12H7725.8C7751.65 2969.11 7776.46 2958.93 7794.84 2940.79C7813.23 2922.66 7823.7 2898.03 7824 2872.24V2872.24V2652.65L7823.5 2652.59ZM7418.63 2652.59H7418V2872.24C7418.33 2898.05 7428.84 2922.69 7447.26 2940.82C7465.68 2958.96 7490.51 2969.13 7516.39 2969.12H7517.02V2750.67C7517.02 2737.78 7514.48 2725.02 7509.53 2713.12C7504.59 2701.22 7497.34 2690.4 7488.2 2681.29C7479.06 2672.18 7468.22 2664.96 7456.28 2660.03C7444.34 2655.11 7431.55 2652.58 7418.63 2652.59V2652.59Z" fill="#011B32"/>
                <path d="M7081.64 2730.08V3168H7080.94C7054.86 3168 7029.84 3157.67 7011.39 3139.28C6992.94 3120.88 6982.57 3095.94 6982.55 3069.92V2632H6983.18C7009.27 2632 7034.3 2642.33 7052.76 2660.72C7071.22 2679.11 7081.6 2704.06 7081.64 2730.08V2730.08ZM7234.5 2652.59C7208.41 2652.59 7183.39 2662.92 7164.94 2681.31C7146.49 2699.7 7136.12 2724.65 7136.1 2750.67V2969.12H7136.8C7162.65 2969.11 7187.46 2958.93 7205.84 2940.79C7224.23 2922.66 7234.7 2898.03 7235 2872.24V2872.24V2652.65L7234.5 2652.59ZM6829.63 2652.59H6829V2872.24C6829.33 2898.05 6839.84 2922.69 6858.26 2940.82C6876.68 2958.96 6901.51 2969.13 6927.39 2969.12H6928.02V2750.67C6928.02 2737.78 6925.48 2725.02 6920.53 2713.12C6915.59 2701.22 6908.34 2690.4 6899.2 2681.29C6890.06 2672.18 6879.22 2664.96 6867.28 2660.03C6855.34 2655.11 6842.55 2652.58 6829.63 2652.59V2652.59Z" fill="#011B32"/>
                <path d="M6492.64 2730.08V3168H6491.94C6465.86 3168 6440.84 3157.67 6422.39 3139.28C6403.94 3120.88 6393.57 3095.94 6393.55 3069.92V2632H6394.18C6420.27 2632 6445.3 2642.33 6463.76 2660.72C6482.22 2679.11 6492.6 2704.06 6492.64 2730.08V2730.08ZM6645.5 2652.59C6619.41 2652.59 6594.39 2662.92 6575.94 2681.31C6557.49 2699.7 6547.12 2724.65 6547.1 2750.67V2969.12H6547.8C6573.65 2969.11 6598.46 2958.93 6616.84 2940.79C6635.23 2922.66 6645.7 2898.03 6646 2872.24V2872.24V2652.65L6645.5 2652.59ZM6240.63 2652.59H6240V2872.24C6240.33 2898.05 6250.84 2922.69 6269.26 2940.82C6287.68 2958.96 6312.51 2969.13 6338.39 2969.12H6339.02V2750.67C6339.02 2737.78 6336.48 2725.02 6331.53 2713.12C6326.59 2701.22 6319.34 2690.4 6310.2 2681.29C6301.06 2672.18 6290.22 2664.96 6278.28 2660.03C6266.34 2655.11 6253.55 2652.58 6240.63 2652.59V2652.59Z" fill="#011B32"/>
                <path d="M5903.64 2730.08V3168H5902.94C5876.86 3168 5851.84 3157.67 5833.39 3139.28C5814.94 3120.88 5804.57 3095.94 5804.55 3069.92V2632H5805.18C5831.27 2632 5856.3 2642.33 5874.76 2660.72C5893.22 2679.11 5903.6 2704.06 5903.64 2730.08V2730.08ZM6056.5 2652.59C6030.41 2652.59 6005.39 2662.92 5986.94 2681.31C5968.49 2699.7 5958.12 2724.65 5958.1 2750.67V2969.12H5958.8C5984.65 2969.11 6009.46 2958.93 6027.84 2940.79C6046.23 2922.66 6056.7 2898.03 6057 2872.24V2872.24V2652.65L6056.5 2652.59ZM5651.63 2652.59H5651V2872.24C5651.33 2898.05 5661.84 2922.69 5680.26 2940.82C5698.68 2958.96 5723.51 2969.13 5749.39 2969.12H5750.02V2750.67C5750.02 2737.78 5747.48 2725.02 5742.53 2713.12C5737.59 2701.22 5730.34 2690.4 5721.2 2681.29C5712.06 2672.18 5701.22 2664.96 5689.28 2660.03C5677.34 2655.11 5664.55 2652.58 5651.63 2652.59V2652.59Z" fill="#011B32"/>
                <path d="M5314.64 2730.08V3168H5313.94C5287.86 3168 5262.84 3157.67 5244.39 3139.28C5225.94 3120.88 5215.57 3095.94 5215.55 3069.92V2632H5216.18C5242.27 2632 5267.3 2642.33 5285.76 2660.72C5304.22 2679.11 5314.6 2704.06 5314.64 2730.08V2730.08ZM5467.5 2652.59C5441.41 2652.59 5416.39 2662.92 5397.94 2681.31C5379.49 2699.7 5369.12 2724.65 5369.1 2750.67V2969.12H5369.8C5395.65 2969.11 5420.46 2958.93 5438.84 2940.79C5457.23 2922.66 5467.7 2898.03 5468 2872.24V2872.24V2652.65L5467.5 2652.59ZM5062.63 2652.59H5062V2872.24C5062.33 2898.05 5072.84 2922.69 5091.26 2940.82C5109.68 2958.96 5134.51 2969.13 5160.39 2969.12H5161.02V2750.67C5161.02 2737.78 5158.48 2725.02 5153.53 2713.12C5148.59 2701.22 5141.34 2690.4 5132.2 2681.29C5123.06 2672.18 5112.22 2664.96 5100.28 2660.03C5088.34 2655.11 5075.55 2652.58 5062.63 2652.59V2652.59Z" fill="#011B32"/>
                <path d="M4725.64 2730.08V3168H4724.94C4698.86 3168 4673.84 3157.67 4655.39 3139.28C4636.94 3120.88 4626.57 3095.94 4626.55 3069.92V2632H4627.18C4653.27 2632 4678.3 2642.33 4696.76 2660.72C4715.22 2679.11 4725.6 2704.06 4725.64 2730.08V2730.08ZM4878.5 2652.59C4852.41 2652.59 4827.39 2662.92 4808.94 2681.31C4790.49 2699.7 4780.12 2724.65 4780.1 2750.67V2969.12H4780.8C4806.65 2969.11 4831.46 2958.93 4849.84 2940.79C4868.23 2922.66 4878.7 2898.03 4879 2872.24V2872.24V2652.65L4878.5 2652.59ZM4473.63 2652.59H4473V2872.24C4473.33 2898.05 4483.84 2922.69 4502.26 2940.82C4520.68 2958.96 4545.51 2969.13 4571.39 2969.12H4572.02V2750.67C4572.02 2737.78 4569.48 2725.02 4564.53 2713.12C4559.59 2701.22 4552.34 2690.4 4543.2 2681.29C4534.06 2672.18 4523.22 2664.96 4511.28 2660.03C4499.34 2655.11 4486.55 2652.58 4473.63 2652.59V2652.59Z" fill="#011B32"/>
                <path d="M4136.64 2730.08V3168H4135.94C4109.86 3168 4084.84 3157.67 4066.39 3139.28C4047.94 3120.88 4037.57 3095.94 4037.55 3069.92V2632H4038.18C4064.27 2632 4089.3 2642.33 4107.76 2660.72C4126.22 2679.11 4136.6 2704.06 4136.64 2730.08V2730.08ZM4289.5 2652.59C4263.41 2652.59 4238.39 2662.92 4219.94 2681.31C4201.49 2699.7 4191.12 2724.65 4191.1 2750.67V2969.12H4191.8C4217.65 2969.11 4242.46 2958.93 4260.84 2940.79C4279.23 2922.66 4289.7 2898.03 4290 2872.24V2872.24V2652.65L4289.5 2652.59ZM3884.63 2652.59H3884V2872.24C3884.33 2898.05 3894.84 2922.69 3913.26 2940.82C3931.68 2958.96 3956.51 2969.13 3982.39 2969.12H3983.02V2750.67C3983.02 2737.78 3980.48 2725.02 3975.53 2713.12C3970.59 2701.22 3963.34 2690.4 3954.2 2681.29C3945.06 2672.18 3934.22 2664.96 3922.28 2660.03C3910.34 2655.11 3897.55 2652.58 3884.63 2652.59V2652.59Z" fill="#011B32"/>
                <path d="M3547.64 2730.08V3168H3546.94C3520.86 3168 3495.84 3157.67 3477.39 3139.28C3458.94 3120.88 3448.57 3095.94 3448.55 3069.92V2632H3449.18C3475.27 2632 3500.3 2642.33 3518.76 2660.72C3537.22 2679.11 3547.6 2704.06 3547.64 2730.08V2730.08ZM3700.5 2652.59C3674.41 2652.59 3649.39 2662.92 3630.94 2681.31C3612.49 2699.7 3602.12 2724.65 3602.1 2750.67V2969.12H3602.8C3628.65 2969.11 3653.46 2958.93 3671.84 2940.79C3690.23 2922.66 3700.7 2898.03 3701 2872.24V2872.24V2652.65L3700.5 2652.59ZM3295.63 2652.59H3295V2872.24C3295.33 2898.05 3305.84 2922.69 3324.26 2940.82C3342.68 2958.96 3367.51 2969.13 3393.39 2969.12H3394.02V2750.67C3394.02 2737.78 3391.48 2725.02 3386.53 2713.12C3381.59 2701.22 3374.34 2690.4 3365.2 2681.29C3356.06 2672.18 3345.22 2664.96 3333.28 2660.03C3321.34 2655.11 3308.55 2652.58 3295.63 2652.59V2652.59Z" fill="#011B32"/>
                <path d="M2958.64 2730.08V3168H2957.94C2931.86 3168 2906.84 3157.67 2888.39 3139.28C2869.94 3120.88 2859.57 3095.94 2859.55 3069.92V2632H2860.18C2886.27 2632 2911.3 2642.33 2929.76 2660.72C2948.22 2679.11 2958.6 2704.06 2958.64 2730.08V2730.08ZM3111.5 2652.59C3085.41 2652.59 3060.39 2662.92 3041.94 2681.31C3023.49 2699.7 3013.12 2724.65 3013.1 2750.67V2969.12H3013.8C3039.65 2969.11 3064.46 2958.93 3082.84 2940.79C3101.23 2922.66 3111.7 2898.03 3112 2872.24V2872.24V2652.65L3111.5 2652.59ZM2706.63 2652.59H2706V2872.24C2706.33 2898.05 2716.84 2922.69 2735.26 2940.82C2753.68 2958.96 2778.51 2969.13 2804.39 2969.12H2805.02V2750.67C2805.02 2737.78 2802.48 2725.02 2797.53 2713.12C2792.59 2701.22 2785.34 2690.4 2776.2 2681.29C2767.06 2672.18 2756.22 2664.96 2744.28 2660.03C2732.34 2655.11 2719.55 2652.58 2706.63 2652.59V2652.59Z" fill="#011B32"/>
                <path d="M2369.64 2730.08V3168H2368.94C2342.86 3168 2317.84 3157.67 2299.39 3139.28C2280.94 3120.88 2270.57 3095.94 2270.55 3069.92V2632H2271.18C2297.27 2632 2322.3 2642.33 2340.76 2660.72C2359.22 2679.11 2369.6 2704.06 2369.64 2730.08V2730.08ZM2522.5 2652.59C2496.41 2652.59 2471.39 2662.92 2452.94 2681.31C2434.49 2699.7 2424.12 2724.65 2424.1 2750.67V2969.12H2424.8C2450.65 2969.11 2475.46 2958.93 2493.84 2940.79C2512.23 2922.66 2522.7 2898.03 2523 2872.24V2872.24V2652.65L2522.5 2652.59ZM2117.63 2652.59H2117V2872.24C2117.33 2898.05 2127.84 2922.69 2146.26 2940.82C2164.68 2958.96 2189.51 2969.13 2215.39 2969.12H2216.02V2750.67C2216.02 2737.78 2213.48 2725.02 2208.53 2713.12C2203.59 2701.22 2196.34 2690.4 2187.2 2681.29C2178.06 2672.18 2167.22 2664.96 2155.28 2660.03C2143.34 2655.11 2130.55 2652.58 2117.63 2652.59V2652.59Z" fill="#011B32"/>
                <path d="M1780.64 2730.08V3168H1779.94C1753.86 3168 1728.84 3157.67 1710.39 3139.28C1691.94 3120.88 1681.57 3095.94 1681.55 3069.92V2632H1682.18C1708.27 2632 1733.3 2642.33 1751.76 2660.72C1770.22 2679.11 1780.6 2704.06 1780.64 2730.08V2730.08ZM1933.5 2652.59C1907.41 2652.59 1882.39 2662.92 1863.94 2681.31C1845.49 2699.7 1835.12 2724.65 1835.1 2750.67V2969.12H1835.8C1861.65 2969.11 1886.46 2958.93 1904.84 2940.79C1923.23 2922.66 1933.7 2898.03 1934 2872.24V2872.24V2652.65L1933.5 2652.59ZM1528.63 2652.59H1528V2872.24C1528.33 2898.05 1538.84 2922.69 1557.26 2940.82C1575.68 2958.96 1600.51 2969.13 1626.39 2969.12H1627.02V2750.67C1627.02 2737.78 1624.48 2725.02 1619.53 2713.12C1614.59 2701.22 1607.34 2690.4 1598.2 2681.29C1589.06 2672.18 1578.22 2664.96 1566.28 2660.03C1554.34 2655.11 1541.55 2652.58 1528.63 2652.59V2652.59Z" fill="#011B32"/>
                <path d="M1191.64 2730.08V3168H1190.94C1164.86 3168 1139.84 3157.67 1121.39 3139.28C1102.94 3120.88 1092.57 3095.94 1092.55 3069.92V2632H1093.18C1119.27 2632 1144.3 2642.33 1162.76 2660.72C1181.22 2679.11 1191.6 2704.06 1191.64 2730.08V2730.08ZM1344.5 2652.59C1318.41 2652.59 1293.39 2662.92 1274.94 2681.31C1256.49 2699.7 1246.12 2724.65 1246.1 2750.67V2969.12H1246.8C1272.65 2969.11 1297.46 2958.93 1315.84 2940.79C1334.23 2922.66 1344.7 2898.03 1345 2872.24V2872.24V2652.65L1344.5 2652.59ZM939.631 2652.59H939V2872.24C939.332 2898.05 949.845 2922.69 968.261 2940.82C986.677 2958.96 1011.51 2969.13 1037.39 2969.12H1038.02V2750.67C1038.02 2737.78 1035.48 2725.02 1030.53 2713.12C1025.59 2701.22 1018.34 2690.4 1009.2 2681.29C1000.06 2672.18 989.216 2664.96 977.279 2660.03C965.342 2655.11 952.549 2652.58 939.631 2652.59V2652.59Z" fill="#011B32"/>
                <path d="M602.638 2730.08V3168H601.943C575.859 3168 550.842 3157.67 532.392 3139.28C513.942 3120.88 503.568 3095.94 503.552 3069.92V2632H504.183C530.273 2632 555.296 2642.33 573.756 2660.72C592.217 2679.11 602.604 2704.06 602.638 2730.08V2730.08ZM755.495 2652.59C729.411 2652.59 704.394 2662.92 685.944 2681.31C667.494 2699.7 657.12 2724.65 657.103 2750.67V2969.12H657.798C683.653 2969.11 708.46 2958.93 726.843 2940.79C745.225 2922.66 755.701 2898.03 756 2872.24V2872.24V2652.65L755.495 2652.59ZM350.631 2652.59H350V2872.24C350.332 2898.05 360.845 2922.69 379.261 2940.82C397.677 2958.96 422.514 2969.13 448.392 2969.12H449.023V2750.67C449.023 2737.78 446.477 2725.02 441.532 2713.12C436.587 2701.22 429.338 2690.4 420.201 2681.29C411.063 2672.18 400.216 2664.96 388.279 2660.03C376.342 2655.11 363.549 2652.58 350.631 2652.59V2652.59Z" fill="#011B32"/>
                <path d="M13.6376 2730.08V3168H12.9434C-13.1408 3168 -38.1575 3157.67 -56.6077 3139.28C-75.058 3120.88 -85.4316 3095.94 -85.4483 3069.92V2632H-84.8172C-58.7272 2632 -33.7039 2642.33 -15.2437 2660.72C3.21656 2679.11 13.6042 2704.06 13.6376 2730.08V2730.08ZM166.495 2652.59C140.411 2652.59 115.394 2662.92 96.944 2681.31C78.4938 2699.7 68.1201 2724.65 68.1034 2750.67V2969.12H68.7976C94.6527 2969.11 119.46 2958.93 137.843 2940.79C156.225 2922.66 166.701 2898.03 167 2872.24V2872.24V2652.65L166.495 2652.59ZM-238.369 2652.59H-239V2872.24C-238.668 2898.05 -228.155 2922.69 -209.739 2940.82C-191.323 2958.96 -166.486 2969.13 -140.608 2969.12H-139.977V2750.67C-139.977 2737.78 -142.523 2725.02 -147.468 2713.12C-152.413 2701.22 -159.662 2690.4 -168.799 2681.29C-177.937 2672.18 -188.784 2664.96 -200.721 2660.03C-212.658 2655.11 -225.451 2652.58 -238.369 2652.59V2652.59Z" fill="#011B32"/>
                <path d="M9738.64 2087.08V2525H9737.94C9711.86 2525 9686.84 2514.67 9668.39 2496.28C9649.94 2477.88 9639.57 2452.94 9639.55 2426.92V1989H9640.18C9666.27 1989 9691.3 1999.33 9709.76 2017.72C9728.22 2036.11 9738.6 2061.06 9738.64 2087.08V2087.08ZM9891.5 2009.59C9865.41 2009.59 9840.39 2019.92 9821.94 2038.31C9803.49 2056.7 9793.12 2081.65 9793.1 2107.67V2326.12H9793.8C9819.65 2326.11 9844.46 2315.93 9862.84 2297.79C9881.23 2279.66 9891.7 2255.03 9892 2229.24V2229.24V2009.65L9891.5 2009.59ZM9486.63 2009.59H9486V2229.24C9486.33 2255.05 9496.84 2279.69 9515.26 2297.82C9533.68 2315.96 9558.51 2326.13 9584.39 2326.12H9585.02V2107.67C9585.02 2094.78 9582.48 2082.02 9577.53 2070.12C9572.59 2058.22 9565.34 2047.4 9556.2 2038.29C9547.06 2029.18 9536.22 2021.96 9524.28 2017.03C9512.34 2012.11 9499.55 2009.58 9486.63 2009.59V2009.59Z" fill="#011D35"/>
                <path d="M9149.64 2087.08V2525H9148.94C9122.86 2525 9097.84 2514.67 9079.39 2496.28C9060.94 2477.88 9050.57 2452.94 9050.55 2426.92V1989H9051.18C9077.27 1989 9102.3 1999.33 9120.76 2017.72C9139.22 2036.11 9149.6 2061.06 9149.64 2087.08V2087.08ZM9302.5 2009.59C9276.41 2009.59 9251.39 2019.92 9232.94 2038.31C9214.49 2056.7 9204.12 2081.65 9204.1 2107.67V2326.12H9204.8C9230.65 2326.11 9255.46 2315.93 9273.84 2297.79C9292.23 2279.66 9302.7 2255.03 9303 2229.24V2229.24V2009.65L9302.5 2009.59ZM8897.63 2009.59H8897V2229.24C8897.33 2255.05 8907.84 2279.69 8926.26 2297.82C8944.68 2315.96 8969.51 2326.13 8995.39 2326.12H8996.02V2107.67C8996.02 2094.78 8993.48 2082.02 8988.53 2070.12C8983.59 2058.22 8976.34 2047.4 8967.2 2038.29C8958.06 2029.18 8947.22 2021.96 8935.28 2017.03C8923.34 2012.11 8910.55 2009.58 8897.63 2009.59V2009.59Z" fill="#011D35"/>
                <path d="M8560.64 2087.08V2525H8559.94C8533.86 2525 8508.84 2514.67 8490.39 2496.28C8471.94 2477.88 8461.57 2452.94 8461.55 2426.92V1989H8462.18C8488.27 1989 8513.3 1999.33 8531.76 2017.72C8550.22 2036.11 8560.6 2061.06 8560.64 2087.08V2087.08ZM8713.5 2009.59C8687.41 2009.59 8662.39 2019.92 8643.94 2038.31C8625.49 2056.7 8615.12 2081.65 8615.1 2107.67V2326.12H8615.8C8641.65 2326.11 8666.46 2315.93 8684.84 2297.79C8703.23 2279.66 8713.7 2255.03 8714 2229.24V2229.24V2009.65L8713.5 2009.59ZM8308.63 2009.59H8308V2229.24C8308.33 2255.05 8318.84 2279.69 8337.26 2297.82C8355.68 2315.96 8380.51 2326.13 8406.39 2326.12H8407.02V2107.67C8407.02 2094.78 8404.48 2082.02 8399.53 2070.12C8394.59 2058.22 8387.34 2047.4 8378.2 2038.29C8369.06 2029.18 8358.22 2021.96 8346.28 2017.03C8334.34 2012.11 8321.55 2009.58 8308.63 2009.59V2009.59Z" fill="#011D35"/>
                <path d="M7971.64 2087.08V2525H7970.94C7944.86 2525 7919.84 2514.67 7901.39 2496.28C7882.94 2477.88 7872.57 2452.94 7872.55 2426.92V1989H7873.18C7899.27 1989 7924.3 1999.33 7942.76 2017.72C7961.22 2036.11 7971.6 2061.06 7971.64 2087.08V2087.08ZM8124.5 2009.59C8098.41 2009.59 8073.39 2019.92 8054.94 2038.31C8036.49 2056.7 8026.12 2081.65 8026.1 2107.67V2326.12H8026.8C8052.65 2326.11 8077.46 2315.93 8095.84 2297.79C8114.23 2279.66 8124.7 2255.03 8125 2229.24V2229.24V2009.65L8124.5 2009.59ZM7719.63 2009.59H7719V2229.24C7719.33 2255.05 7729.84 2279.69 7748.26 2297.82C7766.68 2315.96 7791.51 2326.13 7817.39 2326.12H7818.02V2107.67C7818.02 2094.78 7815.48 2082.02 7810.53 2070.12C7805.59 2058.22 7798.34 2047.4 7789.2 2038.29C7780.06 2029.18 7769.22 2021.96 7757.28 2017.03C7745.34 2012.11 7732.55 2009.58 7719.63 2009.59V2009.59Z" fill="#011D35"/>
                <path d="M7382.64 2087.08V2525H7381.94C7355.86 2525 7330.84 2514.67 7312.39 2496.28C7293.94 2477.88 7283.57 2452.94 7283.55 2426.92V1989H7284.18C7310.27 1989 7335.3 1999.33 7353.76 2017.72C7372.22 2036.11 7382.6 2061.06 7382.64 2087.08V2087.08ZM7535.5 2009.59C7509.41 2009.59 7484.39 2019.92 7465.94 2038.31C7447.49 2056.7 7437.12 2081.65 7437.1 2107.67V2326.12H7437.8C7463.65 2326.11 7488.46 2315.93 7506.84 2297.79C7525.23 2279.66 7535.7 2255.03 7536 2229.24V2229.24V2009.65L7535.5 2009.59ZM7130.63 2009.59H7130V2229.24C7130.33 2255.05 7140.84 2279.69 7159.26 2297.82C7177.68 2315.96 7202.51 2326.13 7228.39 2326.12H7229.02V2107.67C7229.02 2094.78 7226.48 2082.02 7221.53 2070.12C7216.59 2058.22 7209.34 2047.4 7200.2 2038.29C7191.06 2029.18 7180.22 2021.96 7168.28 2017.03C7156.34 2012.11 7143.55 2009.58 7130.63 2009.59V2009.59Z" fill="#011D35"/>
                <path d="M6793.64 2087.08V2525H6792.94C6766.86 2525 6741.84 2514.67 6723.39 2496.28C6704.94 2477.88 6694.57 2452.94 6694.55 2426.92V1989H6695.18C6721.27 1989 6746.3 1999.33 6764.76 2017.72C6783.22 2036.11 6793.6 2061.06 6793.64 2087.08V2087.08ZM6946.5 2009.59C6920.41 2009.59 6895.39 2019.92 6876.94 2038.31C6858.49 2056.7 6848.12 2081.65 6848.1 2107.67V2326.12H6848.8C6874.65 2326.11 6899.46 2315.93 6917.84 2297.79C6936.23 2279.66 6946.7 2255.03 6947 2229.24V2229.24V2009.65L6946.5 2009.59ZM6541.63 2009.59H6541V2229.24C6541.33 2255.05 6551.84 2279.69 6570.26 2297.82C6588.68 2315.96 6613.51 2326.13 6639.39 2326.12H6640.02V2107.67C6640.02 2094.78 6637.48 2082.02 6632.53 2070.12C6627.59 2058.22 6620.34 2047.4 6611.2 2038.29C6602.06 2029.18 6591.22 2021.96 6579.28 2017.03C6567.34 2012.11 6554.55 2009.58 6541.63 2009.59V2009.59Z" fill="#011D35"/>
                <path d="M6204.64 2087.08V2525H6203.94C6177.86 2525 6152.84 2514.67 6134.39 2496.28C6115.94 2477.88 6105.57 2452.94 6105.55 2426.92V1989H6106.18C6132.27 1989 6157.3 1999.33 6175.76 2017.72C6194.22 2036.11 6204.6 2061.06 6204.64 2087.08V2087.08ZM6357.5 2009.59C6331.41 2009.59 6306.39 2019.92 6287.94 2038.31C6269.49 2056.7 6259.12 2081.65 6259.1 2107.67V2326.12H6259.8C6285.65 2326.11 6310.46 2315.93 6328.84 2297.79C6347.23 2279.66 6357.7 2255.03 6358 2229.24V2229.24V2009.65L6357.5 2009.59ZM5952.63 2009.59H5952V2229.24C5952.33 2255.05 5962.84 2279.69 5981.26 2297.82C5999.68 2315.96 6024.51 2326.13 6050.39 2326.12H6051.02V2107.67C6051.02 2094.78 6048.48 2082.02 6043.53 2070.12C6038.59 2058.22 6031.34 2047.4 6022.2 2038.29C6013.06 2029.18 6002.22 2021.96 5990.28 2017.03C5978.34 2012.11 5965.55 2009.58 5952.63 2009.59V2009.59Z" fill="#011D35"/>
                <path d="M5615.64 2087.08V2525H5614.94C5588.86 2525 5563.84 2514.67 5545.39 2496.28C5526.94 2477.88 5516.57 2452.94 5516.55 2426.92V1989H5517.18C5543.27 1989 5568.3 1999.33 5586.76 2017.72C5605.22 2036.11 5615.6 2061.06 5615.64 2087.08V2087.08ZM5768.5 2009.59C5742.41 2009.59 5717.39 2019.92 5698.94 2038.31C5680.49 2056.7 5670.12 2081.65 5670.1 2107.67V2326.12H5670.8C5696.65 2326.11 5721.46 2315.93 5739.84 2297.79C5758.23 2279.66 5768.7 2255.03 5769 2229.24V2229.24V2009.65L5768.5 2009.59ZM5363.63 2009.59H5363V2229.24C5363.33 2255.05 5373.84 2279.69 5392.26 2297.82C5410.68 2315.96 5435.51 2326.13 5461.39 2326.12H5462.02V2107.67C5462.02 2094.78 5459.48 2082.02 5454.53 2070.12C5449.59 2058.22 5442.34 2047.4 5433.2 2038.29C5424.06 2029.18 5413.22 2021.96 5401.28 2017.03C5389.34 2012.11 5376.55 2009.58 5363.63 2009.59V2009.59Z" fill="#011D35"/>
                <path d="M5026.64 2087.08V2525H5025.94C4999.86 2525 4974.84 2514.67 4956.39 2496.28C4937.94 2477.88 4927.57 2452.94 4927.55 2426.92V1989H4928.18C4954.27 1989 4979.3 1999.33 4997.76 2017.72C5016.22 2036.11 5026.6 2061.06 5026.64 2087.08V2087.08ZM5179.5 2009.59C5153.41 2009.59 5128.39 2019.92 5109.94 2038.31C5091.49 2056.7 5081.12 2081.65 5081.1 2107.67V2326.12H5081.8C5107.65 2326.11 5132.46 2315.93 5150.84 2297.79C5169.23 2279.66 5179.7 2255.03 5180 2229.24V2229.24V2009.65L5179.5 2009.59ZM4774.63 2009.59H4774V2229.24C4774.33 2255.05 4784.84 2279.69 4803.26 2297.82C4821.68 2315.96 4846.51 2326.13 4872.39 2326.12H4873.02V2107.67C4873.02 2094.78 4870.48 2082.02 4865.53 2070.12C4860.59 2058.22 4853.34 2047.4 4844.2 2038.29C4835.06 2029.18 4824.22 2021.96 4812.28 2017.03C4800.34 2012.11 4787.55 2009.58 4774.63 2009.59V2009.59Z" fill="#011D35"/>
                <path d="M4437.64 2087.08V2525H4436.94C4410.86 2525 4385.84 2514.67 4367.39 2496.28C4348.94 2477.88 4338.57 2452.94 4338.55 2426.92V1989H4339.18C4365.27 1989 4390.3 1999.33 4408.76 2017.72C4427.22 2036.11 4437.6 2061.06 4437.64 2087.08V2087.08ZM4590.5 2009.59C4564.41 2009.59 4539.39 2019.92 4520.94 2038.31C4502.49 2056.7 4492.12 2081.65 4492.1 2107.67V2326.12H4492.8C4518.65 2326.11 4543.46 2315.93 4561.84 2297.79C4580.23 2279.66 4590.7 2255.03 4591 2229.24V2229.24V2009.65L4590.5 2009.59ZM4185.63 2009.59H4185V2229.24C4185.33 2255.05 4195.84 2279.69 4214.26 2297.82C4232.68 2315.96 4257.51 2326.13 4283.39 2326.12H4284.02V2107.67C4284.02 2094.78 4281.48 2082.02 4276.53 2070.12C4271.59 2058.22 4264.34 2047.4 4255.2 2038.29C4246.06 2029.18 4235.22 2021.96 4223.28 2017.03C4211.34 2012.11 4198.55 2009.58 4185.63 2009.59V2009.59Z" fill="#011D35"/>
                <path d="M3848.64 2087.08V2525H3847.94C3821.86 2525 3796.84 2514.67 3778.39 2496.28C3759.94 2477.88 3749.57 2452.94 3749.55 2426.92V1989H3750.18C3776.27 1989 3801.3 1999.33 3819.76 2017.72C3838.22 2036.11 3848.6 2061.06 3848.64 2087.08V2087.08ZM4001.5 2009.59C3975.41 2009.59 3950.39 2019.92 3931.94 2038.31C3913.49 2056.7 3903.12 2081.65 3903.1 2107.67V2326.12H3903.8C3929.65 2326.11 3954.46 2315.93 3972.84 2297.79C3991.23 2279.66 4001.7 2255.03 4002 2229.24V2229.24V2009.65L4001.5 2009.59ZM3596.63 2009.59H3596V2229.24C3596.33 2255.05 3606.84 2279.69 3625.26 2297.82C3643.68 2315.96 3668.51 2326.13 3694.39 2326.12H3695.02V2107.67C3695.02 2094.78 3692.48 2082.02 3687.53 2070.12C3682.59 2058.22 3675.34 2047.4 3666.2 2038.29C3657.06 2029.18 3646.22 2021.96 3634.28 2017.03C3622.34 2012.11 3609.55 2009.58 3596.63 2009.59V2009.59Z" fill="#011D35"/>
                <path d="M3259.64 2087.08V2525H3258.94C3232.86 2525 3207.84 2514.67 3189.39 2496.28C3170.94 2477.88 3160.57 2452.94 3160.55 2426.92V1989H3161.18C3187.27 1989 3212.3 1999.33 3230.76 2017.72C3249.22 2036.11 3259.6 2061.06 3259.64 2087.08V2087.08ZM3412.5 2009.59C3386.41 2009.59 3361.39 2019.92 3342.94 2038.31C3324.49 2056.7 3314.12 2081.65 3314.1 2107.67V2326.12H3314.8C3340.65 2326.11 3365.46 2315.93 3383.84 2297.79C3402.23 2279.66 3412.7 2255.03 3413 2229.24V2229.24V2009.65L3412.5 2009.59ZM3007.63 2009.59H3007V2229.24C3007.33 2255.05 3017.84 2279.69 3036.26 2297.82C3054.68 2315.96 3079.51 2326.13 3105.39 2326.12H3106.02V2107.67C3106.02 2094.78 3103.48 2082.02 3098.53 2070.12C3093.59 2058.22 3086.34 2047.4 3077.2 2038.29C3068.06 2029.18 3057.22 2021.96 3045.28 2017.03C3033.34 2012.11 3020.55 2009.58 3007.63 2009.59V2009.59Z" fill="#011D35"/>
                <path d="M2670.64 2087.08V2525H2669.94C2643.86 2525 2618.84 2514.67 2600.39 2496.28C2581.94 2477.88 2571.57 2452.94 2571.55 2426.92V1989H2572.18C2598.27 1989 2623.3 1999.33 2641.76 2017.72C2660.22 2036.11 2670.6 2061.06 2670.64 2087.08V2087.08ZM2823.5 2009.59C2797.41 2009.59 2772.39 2019.92 2753.94 2038.31C2735.49 2056.7 2725.12 2081.65 2725.1 2107.67V2326.12H2725.8C2751.65 2326.11 2776.46 2315.93 2794.84 2297.79C2813.23 2279.66 2823.7 2255.03 2824 2229.24V2229.24V2009.65L2823.5 2009.59ZM2418.63 2009.59H2418V2229.24C2418.33 2255.05 2428.84 2279.69 2447.26 2297.82C2465.68 2315.96 2490.51 2326.13 2516.39 2326.12H2517.02V2107.67C2517.02 2094.78 2514.48 2082.02 2509.53 2070.12C2504.59 2058.22 2497.34 2047.4 2488.2 2038.29C2479.06 2029.18 2468.22 2021.96 2456.28 2017.03C2444.34 2012.11 2431.55 2009.58 2418.63 2009.59V2009.59Z" fill="#011D35"/>
                <path d="M2081.64 2087.08V2525H2080.94C2054.86 2525 2029.84 2514.67 2011.39 2496.28C1992.94 2477.88 1982.57 2452.94 1982.55 2426.92V1989H1983.18C2009.27 1989 2034.3 1999.33 2052.76 2017.72C2071.22 2036.11 2081.6 2061.06 2081.64 2087.08V2087.08ZM2234.5 2009.59C2208.41 2009.59 2183.39 2019.92 2164.94 2038.31C2146.49 2056.7 2136.12 2081.65 2136.1 2107.67V2326.12H2136.8C2162.65 2326.11 2187.46 2315.93 2205.84 2297.79C2224.23 2279.66 2234.7 2255.03 2235 2229.24V2229.24V2009.65L2234.5 2009.59ZM1829.63 2009.59H1829V2229.24C1829.33 2255.05 1839.84 2279.69 1858.26 2297.82C1876.68 2315.96 1901.51 2326.13 1927.39 2326.12H1928.02V2107.67C1928.02 2094.78 1925.48 2082.02 1920.53 2070.12C1915.59 2058.22 1908.34 2047.4 1899.2 2038.29C1890.06 2029.18 1879.22 2021.96 1867.28 2017.03C1855.34 2012.11 1842.55 2009.58 1829.63 2009.59V2009.59Z" fill="#011D35"/>
                <path d="M1492.64 2087.08V2525H1491.94C1465.86 2525 1440.84 2514.67 1422.39 2496.28C1403.94 2477.88 1393.57 2452.94 1393.55 2426.92V1989H1394.18C1420.27 1989 1445.3 1999.33 1463.76 2017.72C1482.22 2036.11 1492.6 2061.06 1492.64 2087.08V2087.08ZM1645.5 2009.59C1619.41 2009.59 1594.39 2019.92 1575.94 2038.31C1557.49 2056.7 1547.12 2081.65 1547.1 2107.67V2326.12H1547.8C1573.65 2326.11 1598.46 2315.93 1616.84 2297.79C1635.23 2279.66 1645.7 2255.03 1646 2229.24V2229.24V2009.65L1645.5 2009.59ZM1240.63 2009.59H1240V2229.24C1240.33 2255.05 1250.84 2279.69 1269.26 2297.82C1287.68 2315.96 1312.51 2326.13 1338.39 2326.12H1339.02V2107.67C1339.02 2094.78 1336.48 2082.02 1331.53 2070.12C1326.59 2058.22 1319.34 2047.4 1310.2 2038.29C1301.06 2029.18 1290.22 2021.96 1278.28 2017.03C1266.34 2012.11 1253.55 2009.58 1240.63 2009.59V2009.59Z" fill="#011D35"/>
                <path d="M903.638 2087.08V2525H902.943C876.859 2525 851.842 2514.67 833.392 2496.28C814.942 2477.88 804.568 2452.94 804.552 2426.92V1989H805.183C831.273 1989 856.296 1999.33 874.756 2017.72C893.217 2036.11 903.604 2061.06 903.638 2087.08V2087.08ZM1056.5 2009.59C1030.41 2009.59 1005.39 2019.92 986.944 2038.31C968.494 2056.7 958.12 2081.65 958.103 2107.67V2326.12H958.798C984.653 2326.11 1009.46 2315.93 1027.84 2297.79C1046.23 2279.66 1056.7 2255.03 1057 2229.24V2229.24V2009.65L1056.5 2009.59ZM651.631 2009.59H651V2229.24C651.332 2255.05 661.845 2279.69 680.261 2297.82C698.677 2315.96 723.514 2326.13 749.392 2326.12H750.023V2107.67C750.023 2094.78 747.477 2082.02 742.532 2070.12C737.587 2058.22 730.338 2047.4 721.201 2038.29C712.063 2029.18 701.216 2021.96 689.279 2017.03C677.342 2012.11 664.549 2009.58 651.631 2009.59V2009.59Z" fill="#011D35"/>
                <path d="M314.638 2087.08V2525H313.943C287.859 2525 262.842 2514.67 244.392 2496.28C225.942 2477.88 215.568 2452.94 215.552 2426.92V1989H216.183C242.273 1989 267.296 1999.33 285.756 2017.72C304.217 2036.11 314.604 2061.06 314.638 2087.08V2087.08ZM467.495 2009.59C441.411 2009.59 416.394 2019.92 397.944 2038.31C379.494 2056.7 369.12 2081.65 369.103 2107.67V2326.12H369.798C395.653 2326.11 420.46 2315.93 438.843 2297.79C457.225 2279.66 467.701 2255.03 468 2229.24V2229.24V2009.65L467.495 2009.59ZM62.6311 2009.59H62V2229.24C62.332 2255.05 72.8446 2279.69 91.2608 2297.82C109.677 2315.96 134.514 2326.13 160.392 2326.12H161.023V2107.67C161.023 2094.78 158.477 2082.02 153.532 2070.12C148.587 2058.22 141.338 2047.4 132.201 2038.29C123.063 2029.18 112.216 2021.96 100.279 2017.03C88.3422 2012.11 75.5491 2009.58 62.6311 2009.59V2009.59Z" fill="#011D35"/>
                <path d="M10026.6 1444.08V1882H10025.9C9999.86 1882 9974.84 1871.67 9956.39 1853.28C9937.94 1834.88 9927.57 1809.94 9927.55 1783.92V1346H9928.18C9954.27 1346 9979.3 1356.33 9997.76 1374.72C10016.2 1393.11 10026.6 1418.06 10026.6 1444.08V1444.08ZM10179.5 1366.59C10153.4 1366.59 10128.4 1376.92 10109.9 1395.31C10091.5 1413.7 10081.1 1438.65 10081.1 1464.67V1683.12H10081.8C10107.7 1683.11 10132.5 1672.93 10150.8 1654.79C10169.2 1636.66 10179.7 1612.03 10180 1586.24V1586.24V1366.65L10179.5 1366.59ZM9774.63 1366.59H9774V1586.24C9774.33 1612.05 9784.84 1636.69 9803.26 1654.82C9821.68 1672.96 9846.51 1683.13 9872.39 1683.12H9873.02V1464.67C9873.02 1451.78 9870.48 1439.02 9865.53 1427.12C9860.59 1415.22 9853.34 1404.4 9844.2 1395.29C9835.06 1386.18 9824.22 1378.96 9812.28 1374.03C9800.34 1369.11 9787.55 1366.58 9774.63 1366.59V1366.59Z" fill="#001E38"/>
                <path d="M9437.64 1444.08V1882H9436.94C9410.86 1882 9385.84 1871.67 9367.39 1853.28C9348.94 1834.88 9338.57 1809.94 9338.55 1783.92V1346H9339.18C9365.27 1346 9390.3 1356.33 9408.76 1374.72C9427.22 1393.11 9437.6 1418.06 9437.64 1444.08V1444.08ZM9590.5 1366.59C9564.41 1366.59 9539.39 1376.92 9520.94 1395.31C9502.49 1413.7 9492.12 1438.65 9492.1 1464.67V1683.12H9492.8C9518.65 1683.11 9543.46 1672.93 9561.84 1654.79C9580.23 1636.66 9590.7 1612.03 9591 1586.24V1586.24V1366.65L9590.5 1366.59ZM9185.63 1366.59H9185V1586.24C9185.33 1612.05 9195.84 1636.69 9214.26 1654.82C9232.68 1672.96 9257.51 1683.13 9283.39 1683.12H9284.02V1464.67C9284.02 1451.78 9281.48 1439.02 9276.53 1427.12C9271.59 1415.22 9264.34 1404.4 9255.2 1395.29C9246.06 1386.18 9235.22 1378.96 9223.28 1374.03C9211.34 1369.11 9198.55 1366.58 9185.63 1366.59V1366.59Z" fill="#001E38"/>
                <path d="M8848.64 1444.08V1882H8847.94C8821.86 1882 8796.84 1871.67 8778.39 1853.28C8759.94 1834.88 8749.57 1809.94 8749.55 1783.92V1346H8750.18C8776.27 1346 8801.3 1356.33 8819.76 1374.72C8838.22 1393.11 8848.6 1418.06 8848.64 1444.08V1444.08ZM9001.5 1366.59C8975.41 1366.59 8950.39 1376.92 8931.94 1395.31C8913.49 1413.7 8903.12 1438.65 8903.1 1464.67V1683.12H8903.8C8929.65 1683.11 8954.46 1672.93 8972.84 1654.79C8991.23 1636.66 9001.7 1612.03 9002 1586.24V1586.24V1366.65L9001.5 1366.59ZM8596.63 1366.59H8596V1586.24C8596.33 1612.05 8606.84 1636.69 8625.26 1654.82C8643.68 1672.96 8668.51 1683.13 8694.39 1683.12H8695.02V1464.67C8695.02 1451.78 8692.48 1439.02 8687.53 1427.12C8682.59 1415.22 8675.34 1404.4 8666.2 1395.29C8657.06 1386.18 8646.22 1378.96 8634.28 1374.03C8622.34 1369.11 8609.55 1366.58 8596.63 1366.59V1366.59Z" fill="#001E38"/>
                <path d="M8259.64 1444.08V1882H8258.94C8232.86 1882 8207.84 1871.67 8189.39 1853.28C8170.94 1834.88 8160.57 1809.94 8160.55 1783.92V1346H8161.18C8187.27 1346 8212.3 1356.33 8230.76 1374.72C8249.22 1393.11 8259.6 1418.06 8259.64 1444.08V1444.08ZM8412.5 1366.59C8386.41 1366.59 8361.39 1376.92 8342.94 1395.31C8324.49 1413.7 8314.12 1438.65 8314.1 1464.67V1683.12H8314.8C8340.65 1683.11 8365.46 1672.93 8383.84 1654.79C8402.23 1636.66 8412.7 1612.03 8413 1586.24V1586.24V1366.65L8412.5 1366.59ZM8007.63 1366.59H8007V1586.24C8007.33 1612.05 8017.84 1636.69 8036.26 1654.82C8054.68 1672.96 8079.51 1683.13 8105.39 1683.12H8106.02V1464.67C8106.02 1451.78 8103.48 1439.02 8098.53 1427.12C8093.59 1415.22 8086.34 1404.4 8077.2 1395.29C8068.06 1386.18 8057.22 1378.96 8045.28 1374.03C8033.34 1369.11 8020.55 1366.58 8007.63 1366.59V1366.59Z" fill="#001E38"/>
                <path d="M7670.64 1444.08V1882H7669.94C7643.86 1882 7618.84 1871.67 7600.39 1853.28C7581.94 1834.88 7571.57 1809.94 7571.55 1783.92V1346H7572.18C7598.27 1346 7623.3 1356.33 7641.76 1374.72C7660.22 1393.11 7670.6 1418.06 7670.64 1444.08V1444.08ZM7823.5 1366.59C7797.41 1366.59 7772.39 1376.92 7753.94 1395.31C7735.49 1413.7 7725.12 1438.65 7725.1 1464.67V1683.12H7725.8C7751.65 1683.11 7776.46 1672.93 7794.84 1654.79C7813.23 1636.66 7823.7 1612.03 7824 1586.24V1586.24V1366.65L7823.5 1366.59ZM7418.63 1366.59H7418V1586.24C7418.33 1612.05 7428.84 1636.69 7447.26 1654.82C7465.68 1672.96 7490.51 1683.13 7516.39 1683.12H7517.02V1464.67C7517.02 1451.78 7514.48 1439.02 7509.53 1427.12C7504.59 1415.22 7497.34 1404.4 7488.2 1395.29C7479.06 1386.18 7468.22 1378.96 7456.28 1374.03C7444.34 1369.11 7431.55 1366.58 7418.63 1366.59V1366.59Z" fill="#001E38"/>
                <path d="M7081.64 1444.08V1882H7080.94C7054.86 1882 7029.84 1871.67 7011.39 1853.28C6992.94 1834.88 6982.57 1809.94 6982.55 1783.92V1346H6983.18C7009.27 1346 7034.3 1356.33 7052.76 1374.72C7071.22 1393.11 7081.6 1418.06 7081.64 1444.08V1444.08ZM7234.5 1366.59C7208.41 1366.59 7183.39 1376.92 7164.94 1395.31C7146.49 1413.7 7136.12 1438.65 7136.1 1464.67V1683.12H7136.8C7162.65 1683.11 7187.46 1672.93 7205.84 1654.79C7224.23 1636.66 7234.7 1612.03 7235 1586.24V1586.24V1366.65L7234.5 1366.59ZM6829.63 1366.59H6829V1586.24C6829.33 1612.05 6839.84 1636.69 6858.26 1654.82C6876.68 1672.96 6901.51 1683.13 6927.39 1683.12H6928.02V1464.67C6928.02 1451.78 6925.48 1439.02 6920.53 1427.12C6915.59 1415.22 6908.34 1404.4 6899.2 1395.29C6890.06 1386.18 6879.22 1378.96 6867.28 1374.03C6855.34 1369.11 6842.55 1366.58 6829.63 1366.59V1366.59Z" fill="#001E38"/>
                <path d="M6492.64 1444.08V1882H6491.94C6465.86 1882 6440.84 1871.67 6422.39 1853.28C6403.94 1834.88 6393.57 1809.94 6393.55 1783.92V1346H6394.18C6420.27 1346 6445.3 1356.33 6463.76 1374.72C6482.22 1393.11 6492.6 1418.06 6492.64 1444.08V1444.08ZM6645.5 1366.59C6619.41 1366.59 6594.39 1376.92 6575.94 1395.31C6557.49 1413.7 6547.12 1438.65 6547.1 1464.67V1683.12H6547.8C6573.65 1683.11 6598.46 1672.93 6616.84 1654.79C6635.23 1636.66 6645.7 1612.03 6646 1586.24V1586.24V1366.65L6645.5 1366.59ZM6240.63 1366.59H6240V1586.24C6240.33 1612.05 6250.84 1636.69 6269.26 1654.82C6287.68 1672.96 6312.51 1683.13 6338.39 1683.12H6339.02V1464.67C6339.02 1451.78 6336.48 1439.02 6331.53 1427.12C6326.59 1415.22 6319.34 1404.4 6310.2 1395.29C6301.06 1386.18 6290.22 1378.96 6278.28 1374.03C6266.34 1369.11 6253.55 1366.58 6240.63 1366.59V1366.59Z" fill="#001E38"/>
                <path d="M5903.64 1444.08V1882H5902.94C5876.86 1882 5851.84 1871.67 5833.39 1853.28C5814.94 1834.88 5804.57 1809.94 5804.55 1783.92V1346H5805.18C5831.27 1346 5856.3 1356.33 5874.76 1374.72C5893.22 1393.11 5903.6 1418.06 5903.64 1444.08V1444.08ZM6056.5 1366.59C6030.41 1366.59 6005.39 1376.92 5986.94 1395.31C5968.49 1413.7 5958.12 1438.65 5958.1 1464.67V1683.12H5958.8C5984.65 1683.11 6009.46 1672.93 6027.84 1654.79C6046.23 1636.66 6056.7 1612.03 6057 1586.24V1586.24V1366.65L6056.5 1366.59ZM5651.63 1366.59H5651V1586.24C5651.33 1612.05 5661.84 1636.69 5680.26 1654.82C5698.68 1672.96 5723.51 1683.13 5749.39 1683.12H5750.02V1464.67C5750.02 1451.78 5747.48 1439.02 5742.53 1427.12C5737.59 1415.22 5730.34 1404.4 5721.2 1395.29C5712.06 1386.18 5701.22 1378.96 5689.28 1374.03C5677.34 1369.11 5664.55 1366.58 5651.63 1366.59V1366.59Z" fill="#001E38"/>
                <path d="M5314.64 1444.08V1882H5313.94C5287.86 1882 5262.84 1871.67 5244.39 1853.28C5225.94 1834.88 5215.57 1809.94 5215.55 1783.92V1346H5216.18C5242.27 1346 5267.3 1356.33 5285.76 1374.72C5304.22 1393.11 5314.6 1418.06 5314.64 1444.08V1444.08ZM5467.5 1366.59C5441.41 1366.59 5416.39 1376.92 5397.94 1395.31C5379.49 1413.7 5369.12 1438.65 5369.1 1464.67V1683.12H5369.8C5395.65 1683.11 5420.46 1672.93 5438.84 1654.79C5457.23 1636.66 5467.7 1612.03 5468 1586.24V1586.24V1366.65L5467.5 1366.59ZM5062.63 1366.59H5062V1586.24C5062.33 1612.05 5072.84 1636.69 5091.26 1654.82C5109.68 1672.96 5134.51 1683.13 5160.39 1683.12H5161.02V1464.67C5161.02 1451.78 5158.48 1439.02 5153.53 1427.12C5148.59 1415.22 5141.34 1404.4 5132.2 1395.29C5123.06 1386.18 5112.22 1378.96 5100.28 1374.03C5088.34 1369.11 5075.55 1366.58 5062.63 1366.59V1366.59Z" fill="#001E38"/>
                <path d="M4725.64 1444.08V1882H4724.94C4698.86 1882 4673.84 1871.67 4655.39 1853.28C4636.94 1834.88 4626.57 1809.94 4626.55 1783.92V1346H4627.18C4653.27 1346 4678.3 1356.33 4696.76 1374.72C4715.22 1393.11 4725.6 1418.06 4725.64 1444.08V1444.08ZM4878.5 1366.59C4852.41 1366.59 4827.39 1376.92 4808.94 1395.31C4790.49 1413.7 4780.12 1438.65 4780.1 1464.67V1683.12H4780.8C4806.65 1683.11 4831.46 1672.93 4849.84 1654.79C4868.23 1636.66 4878.7 1612.03 4879 1586.24V1586.24V1366.65L4878.5 1366.59ZM4473.63 1366.59H4473V1586.24C4473.33 1612.05 4483.84 1636.69 4502.26 1654.82C4520.68 1672.96 4545.51 1683.13 4571.39 1683.12H4572.02V1464.67C4572.02 1451.78 4569.48 1439.02 4564.53 1427.12C4559.59 1415.22 4552.34 1404.4 4543.2 1395.29C4534.06 1386.18 4523.22 1378.96 4511.28 1374.03C4499.34 1369.11 4486.55 1366.58 4473.63 1366.59V1366.59Z" fill="#001E38"/>
                <path d="M4136.64 1444.08V1882H4135.94C4109.86 1882 4084.84 1871.67 4066.39 1853.28C4047.94 1834.88 4037.57 1809.94 4037.55 1783.92V1346H4038.18C4064.27 1346 4089.3 1356.33 4107.76 1374.72C4126.22 1393.11 4136.6 1418.06 4136.64 1444.08V1444.08ZM4289.5 1366.59C4263.41 1366.59 4238.39 1376.92 4219.94 1395.31C4201.49 1413.7 4191.12 1438.65 4191.1 1464.67V1683.12H4191.8C4217.65 1683.11 4242.46 1672.93 4260.84 1654.79C4279.23 1636.66 4289.7 1612.03 4290 1586.24V1586.24V1366.65L4289.5 1366.59ZM3884.63 1366.59H3884V1586.24C3884.33 1612.05 3894.84 1636.69 3913.26 1654.82C3931.68 1672.96 3956.51 1683.13 3982.39 1683.12H3983.02V1464.67C3983.02 1451.78 3980.48 1439.02 3975.53 1427.12C3970.59 1415.22 3963.34 1404.4 3954.2 1395.29C3945.06 1386.18 3934.22 1378.96 3922.28 1374.03C3910.34 1369.11 3897.55 1366.58 3884.63 1366.59V1366.59Z" fill="#001E38"/>
                <path d="M3547.64 1444.08V1882H3546.94C3520.86 1882 3495.84 1871.67 3477.39 1853.28C3458.94 1834.88 3448.57 1809.94 3448.55 1783.92V1346H3449.18C3475.27 1346 3500.3 1356.33 3518.76 1374.72C3537.22 1393.11 3547.6 1418.06 3547.64 1444.08V1444.08ZM3700.5 1366.59C3674.41 1366.59 3649.39 1376.92 3630.94 1395.31C3612.49 1413.7 3602.12 1438.65 3602.1 1464.67V1683.12H3602.8C3628.65 1683.11 3653.46 1672.93 3671.84 1654.79C3690.23 1636.66 3700.7 1612.03 3701 1586.24V1586.24V1366.65L3700.5 1366.59ZM3295.63 1366.59H3295V1586.24C3295.33 1612.05 3305.84 1636.69 3324.26 1654.82C3342.68 1672.96 3367.51 1683.13 3393.39 1683.12H3394.02V1464.67C3394.02 1451.78 3391.48 1439.02 3386.53 1427.12C3381.59 1415.22 3374.34 1404.4 3365.2 1395.29C3356.06 1386.18 3345.22 1378.96 3333.28 1374.03C3321.34 1369.11 3308.55 1366.58 3295.63 1366.59V1366.59Z" fill="#001E38"/>
                <path d="M2958.64 1444.08V1882H2957.94C2931.86 1882 2906.84 1871.67 2888.39 1853.28C2869.94 1834.88 2859.57 1809.94 2859.55 1783.92V1346H2860.18C2886.27 1346 2911.3 1356.33 2929.76 1374.72C2948.22 1393.11 2958.6 1418.06 2958.64 1444.08V1444.08ZM3111.5 1366.59C3085.41 1366.59 3060.39 1376.92 3041.94 1395.31C3023.49 1413.7 3013.12 1438.65 3013.1 1464.67V1683.12H3013.8C3039.65 1683.11 3064.46 1672.93 3082.84 1654.79C3101.23 1636.66 3111.7 1612.03 3112 1586.24V1586.24V1366.65L3111.5 1366.59ZM2706.63 1366.59H2706V1586.24C2706.33 1612.05 2716.84 1636.69 2735.26 1654.82C2753.68 1672.96 2778.51 1683.13 2804.39 1683.12H2805.02V1464.67C2805.02 1451.78 2802.48 1439.02 2797.53 1427.12C2792.59 1415.22 2785.34 1404.4 2776.2 1395.29C2767.06 1386.18 2756.22 1378.96 2744.28 1374.03C2732.34 1369.11 2719.55 1366.58 2706.63 1366.59V1366.59Z" fill="#001E38"/>
                <path d="M2369.64 1444.08V1882H2368.94C2342.86 1882 2317.84 1871.67 2299.39 1853.28C2280.94 1834.88 2270.57 1809.94 2270.55 1783.92V1346H2271.18C2297.27 1346 2322.3 1356.33 2340.76 1374.72C2359.22 1393.11 2369.6 1418.06 2369.64 1444.08V1444.08ZM2522.5 1366.59C2496.41 1366.59 2471.39 1376.92 2452.94 1395.31C2434.49 1413.7 2424.12 1438.65 2424.1 1464.67V1683.12H2424.8C2450.65 1683.11 2475.46 1672.93 2493.84 1654.79C2512.23 1636.66 2522.7 1612.03 2523 1586.24V1586.24V1366.65L2522.5 1366.59ZM2117.63 1366.59H2117V1586.24C2117.33 1612.05 2127.84 1636.69 2146.26 1654.82C2164.68 1672.96 2189.51 1683.13 2215.39 1683.12H2216.02V1464.67C2216.02 1451.78 2213.48 1439.02 2208.53 1427.12C2203.59 1415.22 2196.34 1404.4 2187.2 1395.29C2178.06 1386.18 2167.22 1378.96 2155.28 1374.03C2143.34 1369.11 2130.55 1366.58 2117.63 1366.59V1366.59Z" fill="#001E38"/>
                <path d="M1780.64 1444.08V1882H1779.94C1753.86 1882 1728.84 1871.67 1710.39 1853.28C1691.94 1834.88 1681.57 1809.94 1681.55 1783.92V1346H1682.18C1708.27 1346 1733.3 1356.33 1751.76 1374.72C1770.22 1393.11 1780.6 1418.06 1780.64 1444.08V1444.08ZM1933.5 1366.59C1907.41 1366.59 1882.39 1376.92 1863.94 1395.31C1845.49 1413.7 1835.12 1438.65 1835.1 1464.67V1683.12H1835.8C1861.65 1683.11 1886.46 1672.93 1904.84 1654.79C1923.23 1636.66 1933.7 1612.03 1934 1586.24V1586.24V1366.65L1933.5 1366.59ZM1528.63 1366.59H1528V1586.24C1528.33 1612.05 1538.84 1636.69 1557.26 1654.82C1575.68 1672.96 1600.51 1683.13 1626.39 1683.12H1627.02V1464.67C1627.02 1451.78 1624.48 1439.02 1619.53 1427.12C1614.59 1415.22 1607.34 1404.4 1598.2 1395.29C1589.06 1386.18 1578.22 1378.96 1566.28 1374.03C1554.34 1369.11 1541.55 1366.58 1528.63 1366.59V1366.59Z" fill="#001E38"/>
                <path d="M1191.64 1444.08V1882H1190.94C1164.86 1882 1139.84 1871.67 1121.39 1853.28C1102.94 1834.88 1092.57 1809.94 1092.55 1783.92V1346H1093.18C1119.27 1346 1144.3 1356.33 1162.76 1374.72C1181.22 1393.11 1191.6 1418.06 1191.64 1444.08V1444.08ZM1344.5 1366.59C1318.41 1366.59 1293.39 1376.92 1274.94 1395.31C1256.49 1413.7 1246.12 1438.65 1246.1 1464.67V1683.12H1246.8C1272.65 1683.11 1297.46 1672.93 1315.84 1654.79C1334.23 1636.66 1344.7 1612.03 1345 1586.24V1586.24V1366.65L1344.5 1366.59ZM939.631 1366.59H939V1586.24C939.332 1612.05 949.845 1636.69 968.261 1654.82C986.677 1672.96 1011.51 1683.13 1037.39 1683.12H1038.02V1464.67C1038.02 1451.78 1035.48 1439.02 1030.53 1427.12C1025.59 1415.22 1018.34 1404.4 1009.2 1395.29C1000.06 1386.18 989.216 1378.96 977.279 1374.03C965.342 1369.11 952.549 1366.58 939.631 1366.59V1366.59Z" fill="#001E38"/>
                <path d="M602.638 1444.08V1882H601.943C575.859 1882 550.842 1871.67 532.392 1853.28C513.942 1834.88 503.568 1809.94 503.552 1783.92V1346H504.183C530.273 1346 555.296 1356.33 573.756 1374.72C592.217 1393.11 602.604 1418.06 602.638 1444.08V1444.08ZM755.495 1366.59C729.411 1366.59 704.394 1376.92 685.944 1395.31C667.494 1413.7 657.12 1438.65 657.103 1464.67V1683.12H657.798C683.653 1683.11 708.46 1672.93 726.843 1654.79C745.225 1636.66 755.701 1612.03 756 1586.24V1586.24V1366.65L755.495 1366.59ZM350.631 1366.59H350V1586.24C350.332 1612.05 360.845 1636.69 379.261 1654.82C397.677 1672.96 422.514 1683.13 448.392 1683.12H449.023V1464.67C449.023 1451.78 446.477 1439.02 441.532 1427.12C436.587 1415.22 429.338 1404.4 420.201 1395.29C411.063 1386.18 400.216 1378.96 388.279 1374.03C376.342 1369.11 363.549 1366.58 350.631 1366.59V1366.59Z" fill="#001E38"/>
                <path d="M13.6376 1444.08V1882H12.9434C-13.1408 1882 -38.1575 1871.67 -56.6077 1853.28C-75.058 1834.88 -85.4316 1809.94 -85.4483 1783.92V1346H-84.8172C-58.7272 1346 -33.7039 1356.33 -15.2437 1374.72C3.21656 1393.11 13.6042 1418.06 13.6376 1444.08V1444.08ZM166.495 1366.59C140.411 1366.59 115.394 1376.92 96.944 1395.31C78.4938 1413.7 68.1201 1438.65 68.1034 1464.67V1683.12H68.7976C94.6527 1683.11 119.46 1672.93 137.843 1654.79C156.225 1636.66 166.701 1612.03 167 1586.24V1586.24V1366.65L166.495 1366.59ZM-238.369 1366.59H-239V1586.24C-238.668 1612.05 -228.155 1636.69 -209.739 1654.82C-191.323 1672.96 -166.486 1683.13 -140.608 1683.12H-139.977V1464.67C-139.977 1451.78 -142.523 1439.02 -147.468 1427.12C-152.413 1415.22 -159.662 1404.4 -168.799 1395.29C-177.937 1386.18 -188.784 1378.96 -200.721 1374.03C-212.658 1369.11 -225.451 1366.58 -238.369 1366.59V1366.59Z" fill="#001E38"/>
                <path d="M9738.64 801.084V1239H9737.94C9711.86 1239 9686.84 1228.67 9668.39 1210.28C9649.94 1191.88 9639.57 1166.94 9639.55 1140.92V703H9640.18C9666.27 703 9691.3 713.33 9709.76 731.721C9728.22 750.111 9738.6 775.059 9738.64 801.084V801.084ZM9891.5 723.586C9865.41 723.586 9840.39 733.918 9821.94 752.311C9803.49 770.703 9793.12 795.651 9793.1 821.67V1040.12H9793.8C9819.65 1040.11 9844.46 1029.93 9862.84 1011.79C9881.23 993.658 9891.7 969.026 9892 943.237V943.237V723.649L9891.5 723.586ZM9486.63 723.586H9486V943.237C9486.33 969.048 9496.84 993.69 9515.26 1011.82C9533.68 1029.96 9558.51 1040.13 9584.39 1040.12H9585.02V821.67C9585.02 808.785 9582.48 796.025 9577.53 784.121C9572.59 772.217 9565.34 761.401 9556.2 752.292C9547.06 743.183 9536.22 735.96 9524.28 731.034C9512.34 726.109 9499.55 723.578 9486.63 723.586V723.586Z" fill="#00213C"/>
                <path d="M9149.64 801.084V1239H9148.94C9122.86 1239 9097.84 1228.67 9079.39 1210.28C9060.94 1191.88 9050.57 1166.94 9050.55 1140.92V703H9051.18C9077.27 703 9102.3 713.33 9120.76 731.721C9139.22 750.111 9149.6 775.059 9149.64 801.084V801.084ZM9302.5 723.586C9276.41 723.586 9251.39 733.918 9232.94 752.311C9214.49 770.703 9204.12 795.651 9204.1 821.67V1040.12H9204.8C9230.65 1040.11 9255.46 1029.93 9273.84 1011.79C9292.23 993.658 9302.7 969.026 9303 943.237V943.237V723.649L9302.5 723.586ZM8897.63 723.586H8897V943.237C8897.33 969.048 8907.84 993.69 8926.26 1011.82C8944.68 1029.96 8969.51 1040.13 8995.39 1040.12H8996.02V821.67C8996.02 808.785 8993.48 796.025 8988.53 784.121C8983.59 772.217 8976.34 761.401 8967.2 752.292C8958.06 743.183 8947.22 735.96 8935.28 731.034C8923.34 726.109 8910.55 723.578 8897.63 723.586V723.586Z" fill="#00213C"/>
                <path d="M8560.64 801.084V1239H8559.94C8533.86 1239 8508.84 1228.67 8490.39 1210.28C8471.94 1191.88 8461.57 1166.94 8461.55 1140.92V703H8462.18C8488.27 703 8513.3 713.33 8531.76 731.721C8550.22 750.111 8560.6 775.059 8560.64 801.084V801.084ZM8713.5 723.586C8687.41 723.586 8662.39 733.918 8643.94 752.311C8625.49 770.703 8615.12 795.651 8615.1 821.67V1040.12H8615.8C8641.65 1040.11 8666.46 1029.93 8684.84 1011.79C8703.23 993.658 8713.7 969.026 8714 943.237V943.237V723.649L8713.5 723.586ZM8308.63 723.586H8308V943.237C8308.33 969.048 8318.84 993.69 8337.26 1011.82C8355.68 1029.96 8380.51 1040.13 8406.39 1040.12H8407.02V821.67C8407.02 808.785 8404.48 796.025 8399.53 784.121C8394.59 772.217 8387.34 761.401 8378.2 752.292C8369.06 743.183 8358.22 735.96 8346.28 731.034C8334.34 726.109 8321.55 723.578 8308.63 723.586V723.586Z" fill="#00213C"/>
                <path d="M7971.64 801.084V1239H7970.94C7944.86 1239 7919.84 1228.67 7901.39 1210.28C7882.94 1191.88 7872.57 1166.94 7872.55 1140.92V703H7873.18C7899.27 703 7924.3 713.33 7942.76 731.721C7961.22 750.111 7971.6 775.059 7971.64 801.084V801.084ZM8124.5 723.586C8098.41 723.586 8073.39 733.918 8054.94 752.311C8036.49 770.703 8026.12 795.651 8026.1 821.67V1040.12H8026.8C8052.65 1040.11 8077.46 1029.93 8095.84 1011.79C8114.23 993.658 8124.7 969.026 8125 943.237V943.237V723.649L8124.5 723.586ZM7719.63 723.586H7719V943.237C7719.33 969.048 7729.84 993.69 7748.26 1011.82C7766.68 1029.96 7791.51 1040.13 7817.39 1040.12H7818.02V821.67C7818.02 808.785 7815.48 796.025 7810.53 784.121C7805.59 772.217 7798.34 761.401 7789.2 752.292C7780.06 743.183 7769.22 735.96 7757.28 731.034C7745.34 726.109 7732.55 723.578 7719.63 723.586V723.586Z" fill="#00213C"/>
                <path d="M7382.64 801.084V1239H7381.94C7355.86 1239 7330.84 1228.67 7312.39 1210.28C7293.94 1191.88 7283.57 1166.94 7283.55 1140.92V703H7284.18C7310.27 703 7335.3 713.33 7353.76 731.721C7372.22 750.111 7382.6 775.059 7382.64 801.084V801.084ZM7535.5 723.586C7509.41 723.586 7484.39 733.918 7465.94 752.311C7447.49 770.703 7437.12 795.651 7437.1 821.67V1040.12H7437.8C7463.65 1040.11 7488.46 1029.93 7506.84 1011.79C7525.23 993.658 7535.7 969.026 7536 943.237V943.237V723.649L7535.5 723.586ZM7130.63 723.586H7130V943.237C7130.33 969.048 7140.84 993.69 7159.26 1011.82C7177.68 1029.96 7202.51 1040.13 7228.39 1040.12H7229.02V821.67C7229.02 808.785 7226.48 796.025 7221.53 784.121C7216.59 772.217 7209.34 761.401 7200.2 752.292C7191.06 743.183 7180.22 735.96 7168.28 731.034C7156.34 726.109 7143.55 723.578 7130.63 723.586V723.586Z" fill="#00213C"/>
                <path d="M6793.64 801.084V1239H6792.94C6766.86 1239 6741.84 1228.67 6723.39 1210.28C6704.94 1191.88 6694.57 1166.94 6694.55 1140.92V703H6695.18C6721.27 703 6746.3 713.33 6764.76 731.721C6783.22 750.111 6793.6 775.059 6793.64 801.084V801.084ZM6946.5 723.586C6920.41 723.586 6895.39 733.918 6876.94 752.311C6858.49 770.703 6848.12 795.651 6848.1 821.67V1040.12H6848.8C6874.65 1040.11 6899.46 1029.93 6917.84 1011.79C6936.23 993.658 6946.7 969.026 6947 943.237V943.237V723.649L6946.5 723.586ZM6541.63 723.586H6541V943.237C6541.33 969.048 6551.84 993.69 6570.26 1011.82C6588.68 1029.96 6613.51 1040.13 6639.39 1040.12H6640.02V821.67C6640.02 808.785 6637.48 796.025 6632.53 784.121C6627.59 772.217 6620.34 761.401 6611.2 752.292C6602.06 743.183 6591.22 735.96 6579.28 731.034C6567.34 726.109 6554.55 723.578 6541.63 723.586V723.586Z" fill="#00213C"/>
                <path d="M6204.64 801.084V1239H6203.94C6177.86 1239 6152.84 1228.67 6134.39 1210.28C6115.94 1191.88 6105.57 1166.94 6105.55 1140.92V703H6106.18C6132.27 703 6157.3 713.33 6175.76 731.721C6194.22 750.111 6204.6 775.059 6204.64 801.084V801.084ZM6357.5 723.586C6331.41 723.586 6306.39 733.918 6287.94 752.311C6269.49 770.703 6259.12 795.651 6259.1 821.67V1040.12H6259.8C6285.65 1040.11 6310.46 1029.93 6328.84 1011.79C6347.23 993.658 6357.7 969.026 6358 943.237V943.237V723.649L6357.5 723.586ZM5952.63 723.586H5952V943.237C5952.33 969.048 5962.84 993.69 5981.26 1011.82C5999.68 1029.96 6024.51 1040.13 6050.39 1040.12H6051.02V821.67C6051.02 808.785 6048.48 796.025 6043.53 784.121C6038.59 772.217 6031.34 761.401 6022.2 752.292C6013.06 743.183 6002.22 735.96 5990.28 731.034C5978.34 726.109 5965.55 723.578 5952.63 723.586V723.586Z" fill="#00213C"/>
                <path d="M5615.64 801.084V1239H5614.94C5588.86 1239 5563.84 1228.67 5545.39 1210.28C5526.94 1191.88 5516.57 1166.94 5516.55 1140.92V703H5517.18C5543.27 703 5568.3 713.33 5586.76 731.721C5605.22 750.111 5615.6 775.059 5615.64 801.084V801.084ZM5768.5 723.586C5742.41 723.586 5717.39 733.918 5698.94 752.311C5680.49 770.703 5670.12 795.651 5670.1 821.67V1040.12H5670.8C5696.65 1040.11 5721.46 1029.93 5739.84 1011.79C5758.23 993.658 5768.7 969.026 5769 943.237V943.237V723.649L5768.5 723.586ZM5363.63 723.586H5363V943.237C5363.33 969.048 5373.84 993.69 5392.26 1011.82C5410.68 1029.96 5435.51 1040.13 5461.39 1040.12H5462.02V821.67C5462.02 808.785 5459.48 796.025 5454.53 784.121C5449.59 772.217 5442.34 761.401 5433.2 752.292C5424.06 743.183 5413.22 735.96 5401.28 731.034C5389.34 726.109 5376.55 723.578 5363.63 723.586V723.586Z" fill="#00213C"/>
                <path d="M5026.64 801.084V1239H5025.94C4999.86 1239 4974.84 1228.67 4956.39 1210.28C4937.94 1191.88 4927.57 1166.94 4927.55 1140.92V703H4928.18C4954.27 703 4979.3 713.33 4997.76 731.721C5016.22 750.111 5026.6 775.059 5026.64 801.084V801.084ZM5179.5 723.586C5153.41 723.586 5128.39 733.918 5109.94 752.311C5091.49 770.703 5081.12 795.651 5081.1 821.67V1040.12H5081.8C5107.65 1040.11 5132.46 1029.93 5150.84 1011.79C5169.23 993.658 5179.7 969.026 5180 943.237V943.237V723.649L5179.5 723.586ZM4774.63 723.586H4774V943.237C4774.33 969.048 4784.84 993.69 4803.26 1011.82C4821.68 1029.96 4846.51 1040.13 4872.39 1040.12H4873.02V821.67C4873.02 808.785 4870.48 796.025 4865.53 784.121C4860.59 772.217 4853.34 761.401 4844.2 752.292C4835.06 743.183 4824.22 735.96 4812.28 731.034C4800.34 726.109 4787.55 723.578 4774.63 723.586V723.586Z" fill="#00213C"/>
                <path d="M4437.64 801.084V1239H4436.94C4410.86 1239 4385.84 1228.67 4367.39 1210.28C4348.94 1191.88 4338.57 1166.94 4338.55 1140.92V703H4339.18C4365.27 703 4390.3 713.33 4408.76 731.721C4427.22 750.111 4437.6 775.059 4437.64 801.084V801.084ZM4590.5 723.586C4564.41 723.586 4539.39 733.918 4520.94 752.311C4502.49 770.703 4492.12 795.651 4492.1 821.67V1040.12H4492.8C4518.65 1040.11 4543.46 1029.93 4561.84 1011.79C4580.23 993.658 4590.7 969.026 4591 943.237V943.237V723.649L4590.5 723.586ZM4185.63 723.586H4185V943.237C4185.33 969.048 4195.84 993.69 4214.26 1011.82C4232.68 1029.96 4257.51 1040.13 4283.39 1040.12H4284.02V821.67C4284.02 808.785 4281.48 796.025 4276.53 784.121C4271.59 772.217 4264.34 761.401 4255.2 752.292C4246.06 743.183 4235.22 735.96 4223.28 731.034C4211.34 726.109 4198.55 723.578 4185.63 723.586V723.586Z" fill="#00213C"/>
                <path d="M3848.64 801.084V1239H3847.94C3821.86 1239 3796.84 1228.67 3778.39 1210.28C3759.94 1191.88 3749.57 1166.94 3749.55 1140.92V703H3750.18C3776.27 703 3801.3 713.33 3819.76 731.721C3838.22 750.111 3848.6 775.059 3848.64 801.084V801.084ZM4001.5 723.586C3975.41 723.586 3950.39 733.918 3931.94 752.311C3913.49 770.703 3903.12 795.651 3903.1 821.67V1040.12H3903.8C3929.65 1040.11 3954.46 1029.93 3972.84 1011.79C3991.23 993.658 4001.7 969.026 4002 943.237V943.237V723.649L4001.5 723.586ZM3596.63 723.586H3596V943.237C3596.33 969.048 3606.84 993.69 3625.26 1011.82C3643.68 1029.96 3668.51 1040.13 3694.39 1040.12H3695.02V821.67C3695.02 808.785 3692.48 796.025 3687.53 784.121C3682.59 772.217 3675.34 761.401 3666.2 752.292C3657.06 743.183 3646.22 735.96 3634.28 731.034C3622.34 726.109 3609.55 723.578 3596.63 723.586V723.586Z" fill="#00213C"/>
                <path d="M3259.64 801.084V1239H3258.94C3232.86 1239 3207.84 1228.67 3189.39 1210.28C3170.94 1191.88 3160.57 1166.94 3160.55 1140.92V703H3161.18C3187.27 703 3212.3 713.33 3230.76 731.721C3249.22 750.111 3259.6 775.059 3259.64 801.084V801.084ZM3412.5 723.586C3386.41 723.586 3361.39 733.918 3342.94 752.311C3324.49 770.703 3314.12 795.651 3314.1 821.67V1040.12H3314.8C3340.65 1040.11 3365.46 1029.93 3383.84 1011.79C3402.23 993.658 3412.7 969.026 3413 943.237V943.237V723.649L3412.5 723.586ZM3007.63 723.586H3007V943.237C3007.33 969.048 3017.84 993.69 3036.26 1011.82C3054.68 1029.96 3079.51 1040.13 3105.39 1040.12H3106.02V821.67C3106.02 808.785 3103.48 796.025 3098.53 784.121C3093.59 772.217 3086.34 761.401 3077.2 752.292C3068.06 743.183 3057.22 735.96 3045.28 731.034C3033.34 726.109 3020.55 723.578 3007.63 723.586V723.586Z" fill="#00213C"/>
                <path d="M2670.64 801.084V1239H2669.94C2643.86 1239 2618.84 1228.67 2600.39 1210.28C2581.94 1191.88 2571.57 1166.94 2571.55 1140.92V703H2572.18C2598.27 703 2623.3 713.33 2641.76 731.721C2660.22 750.111 2670.6 775.059 2670.64 801.084V801.084ZM2823.5 723.586C2797.41 723.586 2772.39 733.918 2753.94 752.311C2735.49 770.703 2725.12 795.651 2725.1 821.67V1040.12H2725.8C2751.65 1040.11 2776.46 1029.93 2794.84 1011.79C2813.23 993.658 2823.7 969.026 2824 943.237V943.237V723.649L2823.5 723.586ZM2418.63 723.586H2418V943.237C2418.33 969.048 2428.84 993.69 2447.26 1011.82C2465.68 1029.96 2490.51 1040.13 2516.39 1040.12H2517.02V821.67C2517.02 808.785 2514.48 796.025 2509.53 784.121C2504.59 772.217 2497.34 761.401 2488.2 752.292C2479.06 743.183 2468.22 735.96 2456.28 731.034C2444.34 726.109 2431.55 723.578 2418.63 723.586V723.586Z" fill="#00213C"/>
                <path d="M2081.64 801.084V1239H2080.94C2054.86 1239 2029.84 1228.67 2011.39 1210.28C1992.94 1191.88 1982.57 1166.94 1982.55 1140.92V703H1983.18C2009.27 703 2034.3 713.33 2052.76 731.721C2071.22 750.111 2081.6 775.059 2081.64 801.084V801.084ZM2234.5 723.586C2208.41 723.586 2183.39 733.918 2164.94 752.311C2146.49 770.703 2136.12 795.651 2136.1 821.67V1040.12H2136.8C2162.65 1040.11 2187.46 1029.93 2205.84 1011.79C2224.23 993.658 2234.7 969.026 2235 943.237V943.237V723.649L2234.5 723.586ZM1829.63 723.586H1829V943.237C1829.33 969.048 1839.84 993.69 1858.26 1011.82C1876.68 1029.96 1901.51 1040.13 1927.39 1040.12H1928.02V821.67C1928.02 808.785 1925.48 796.025 1920.53 784.121C1915.59 772.217 1908.34 761.401 1899.2 752.292C1890.06 743.183 1879.22 735.96 1867.28 731.034C1855.34 726.109 1842.55 723.578 1829.63 723.586V723.586Z" fill="#00213C"/>
                <path d="M1492.64 801.084V1239H1491.94C1465.86 1239 1440.84 1228.67 1422.39 1210.28C1403.94 1191.88 1393.57 1166.94 1393.55 1140.92V703H1394.18C1420.27 703 1445.3 713.33 1463.76 731.721C1482.22 750.111 1492.6 775.059 1492.64 801.084V801.084ZM1645.5 723.586C1619.41 723.586 1594.39 733.918 1575.94 752.311C1557.49 770.703 1547.12 795.651 1547.1 821.67V1040.12H1547.8C1573.65 1040.11 1598.46 1029.93 1616.84 1011.79C1635.23 993.658 1645.7 969.026 1646 943.237V943.237V723.649L1645.5 723.586ZM1240.63 723.586H1240V943.237C1240.33 969.048 1250.84 993.69 1269.26 1011.82C1287.68 1029.96 1312.51 1040.13 1338.39 1040.12H1339.02V821.67C1339.02 808.785 1336.48 796.025 1331.53 784.121C1326.59 772.217 1319.34 761.401 1310.2 752.292C1301.06 743.183 1290.22 735.96 1278.28 731.034C1266.34 726.109 1253.55 723.578 1240.63 723.586V723.586Z" fill="#00213C"/>
                <path d="M903.638 801.084V1239H902.943C876.859 1239 851.842 1228.67 833.392 1210.28C814.942 1191.88 804.568 1166.94 804.552 1140.92V703H805.183C831.273 703 856.296 713.33 874.756 731.721C893.217 750.111 903.604 775.059 903.638 801.084V801.084ZM1056.5 723.586C1030.41 723.586 1005.39 733.918 986.944 752.311C968.494 770.703 958.12 795.651 958.103 821.67V1040.12H958.798C984.653 1040.11 1009.46 1029.93 1027.84 1011.79C1046.23 993.658 1056.7 969.026 1057 943.237V943.237V723.649L1056.5 723.586ZM651.631 723.586H651V943.237C651.332 969.048 661.845 993.69 680.261 1011.82C698.677 1029.96 723.514 1040.13 749.392 1040.12H750.023V821.67C750.023 808.785 747.477 796.025 742.532 784.121C737.587 772.217 730.338 761.401 721.201 752.292C712.063 743.183 701.216 735.96 689.279 731.034C677.342 726.109 664.549 723.578 651.631 723.586V723.586Z" fill="#00213C"/>
                <path d="M314.638 801.084V1239H313.943C287.859 1239 262.842 1228.67 244.392 1210.28C225.942 1191.88 215.568 1166.94 215.552 1140.92V703H216.183C242.273 703 267.296 713.33 285.756 731.721C304.217 750.111 314.604 775.059 314.638 801.084V801.084ZM467.495 723.586C441.411 723.586 416.394 733.918 397.944 752.311C379.494 770.703 369.12 795.651 369.103 821.67V1040.12H369.798C395.653 1040.11 420.46 1029.93 438.843 1011.79C457.225 993.658 467.701 969.026 468 943.237V943.237V723.649L467.495 723.586ZM62.6311 723.586H62V943.237C62.332 969.048 72.8446 993.69 91.2608 1011.82C109.677 1029.96 134.514 1040.13 160.392 1040.12H161.023V821.67C161.023 808.785 158.477 796.025 153.532 784.121C148.587 772.217 141.338 761.401 132.201 752.292C123.063 743.183 112.216 735.96 100.279 731.034C88.3422 726.109 75.5491 723.578 62.6311 723.586V723.586Z" fill="#00213C"/>
                <path d="M10026.6 158.084V596H10025.9C9999.86 596 9974.84 585.668 9956.39 567.276C9937.94 548.883 9927.57 523.935 9927.55 497.916V60H9928.18C9954.27 60 9979.3 70.3298 9997.76 88.7205C10016.2 107.111 10026.6 132.059 10026.6 158.084V158.084ZM10179.5 80.5863C10153.4 80.5863 10128.4 90.9181 10109.9 109.311C10091.5 127.703 10081.1 152.651 10081.1 178.67V397.125H10081.8C10107.7 397.11 10132.5 386.931 10150.8 368.795C10169.2 350.658 10179.7 326.026 10180 300.237V300.237V80.6493L10179.5 80.5863ZM9774.63 80.5863H9774V300.237C9774.33 326.048 9784.84 350.69 9803.26 368.825C9821.68 386.959 9846.51 397.127 9872.39 397.125H9873.02V178.67C9873.02 165.785 9870.48 153.025 9865.53 141.121C9860.59 129.217 9853.34 118.401 9844.2 109.292C9835.06 100.183 9824.22 92.9599 9812.28 88.0345C9800.34 83.109 9787.55 80.5781 9774.63 80.5863V80.5863Z" fill="#00223E"/>
                <path d="M9437.64 158.084V596H9436.94C9410.86 596 9385.84 585.668 9367.39 567.276C9348.94 548.883 9338.57 523.935 9338.55 497.916V60H9339.18C9365.27 60 9390.3 70.3298 9408.76 88.7205C9427.22 107.111 9437.6 132.059 9437.64 158.084V158.084ZM9590.5 80.5863C9564.41 80.5863 9539.39 90.9181 9520.94 109.311C9502.49 127.703 9492.12 152.651 9492.1 178.67V397.125H9492.8C9518.65 397.11 9543.46 386.931 9561.84 368.795C9580.23 350.658 9590.7 326.026 9591 300.237V300.237V80.6493L9590.5 80.5863ZM9185.63 80.5863H9185V300.237C9185.33 326.048 9195.84 350.69 9214.26 368.825C9232.68 386.959 9257.51 397.127 9283.39 397.125H9284.02V178.67C9284.02 165.785 9281.48 153.025 9276.53 141.121C9271.59 129.217 9264.34 118.401 9255.2 109.292C9246.06 100.183 9235.22 92.9599 9223.28 88.0345C9211.34 83.109 9198.55 80.5781 9185.63 80.5863V80.5863Z" fill="#00223E"/>
                <path d="M8848.64 158.084V596H8847.94C8821.86 596 8796.84 585.668 8778.39 567.276C8759.94 548.883 8749.57 523.935 8749.55 497.916V60H8750.18C8776.27 60 8801.3 70.3298 8819.76 88.7205C8838.22 107.111 8848.6 132.059 8848.64 158.084V158.084ZM9001.5 80.5863C8975.41 80.5863 8950.39 90.9181 8931.94 109.311C8913.49 127.703 8903.12 152.651 8903.1 178.67V397.125H8903.8C8929.65 397.11 8954.46 386.931 8972.84 368.795C8991.23 350.658 9001.7 326.026 9002 300.237V300.237V80.6493L9001.5 80.5863ZM8596.63 80.5863H8596V300.237C8596.33 326.048 8606.84 350.69 8625.26 368.825C8643.68 386.959 8668.51 397.127 8694.39 397.125H8695.02V178.67C8695.02 165.785 8692.48 153.025 8687.53 141.121C8682.59 129.217 8675.34 118.401 8666.2 109.292C8657.06 100.183 8646.22 92.9599 8634.28 88.0345C8622.34 83.109 8609.55 80.5781 8596.63 80.5863V80.5863Z" fill="#00223E"/>
                <path d="M8259.64 158.084V596H8258.94C8232.86 596 8207.84 585.668 8189.39 567.276C8170.94 548.883 8160.57 523.935 8160.55 497.916V60H8161.18C8187.27 60 8212.3 70.3298 8230.76 88.7205C8249.22 107.111 8259.6 132.059 8259.64 158.084V158.084ZM8412.5 80.5863C8386.41 80.5863 8361.39 90.9181 8342.94 109.311C8324.49 127.703 8314.12 152.651 8314.1 178.67V397.125H8314.8C8340.65 397.11 8365.46 386.931 8383.84 368.795C8402.23 350.658 8412.7 326.026 8413 300.237V300.237V80.6493L8412.5 80.5863ZM8007.63 80.5863H8007V300.237C8007.33 326.048 8017.84 350.69 8036.26 368.825C8054.68 386.959 8079.51 397.127 8105.39 397.125H8106.02V178.67C8106.02 165.785 8103.48 153.025 8098.53 141.121C8093.59 129.217 8086.34 118.401 8077.2 109.292C8068.06 100.183 8057.22 92.9599 8045.28 88.0345C8033.34 83.109 8020.55 80.5781 8007.63 80.5863V80.5863Z" fill="#00223E"/>
                <path d="M7670.64 158.084V596H7669.94C7643.86 596 7618.84 585.668 7600.39 567.276C7581.94 548.883 7571.57 523.935 7571.55 497.916V60H7572.18C7598.27 60 7623.3 70.3298 7641.76 88.7205C7660.22 107.111 7670.6 132.059 7670.64 158.084V158.084ZM7823.5 80.5863C7797.41 80.5863 7772.39 90.9181 7753.94 109.311C7735.49 127.703 7725.12 152.651 7725.1 178.67V397.125H7725.8C7751.65 397.11 7776.46 386.931 7794.84 368.795C7813.23 350.658 7823.7 326.026 7824 300.237V300.237V80.6493L7823.5 80.5863ZM7418.63 80.5863H7418V300.237C7418.33 326.048 7428.84 350.69 7447.26 368.825C7465.68 386.959 7490.51 397.127 7516.39 397.125H7517.02V178.67C7517.02 165.785 7514.48 153.025 7509.53 141.121C7504.59 129.217 7497.34 118.401 7488.2 109.292C7479.06 100.183 7468.22 92.9599 7456.28 88.0345C7444.34 83.109 7431.55 80.5781 7418.63 80.5863V80.5863Z" fill="#00223E"/>
                <path d="M7081.64 158.084V596H7080.94C7054.86 596 7029.84 585.668 7011.39 567.276C6992.94 548.883 6982.57 523.935 6982.55 497.916V60H6983.18C7009.27 60 7034.3 70.3298 7052.76 88.7205C7071.22 107.111 7081.6 132.059 7081.64 158.084V158.084ZM7234.5 80.5863C7208.41 80.5863 7183.39 90.9181 7164.94 109.311C7146.49 127.703 7136.12 152.651 7136.1 178.67V397.125H7136.8C7162.65 397.11 7187.46 386.931 7205.84 368.795C7224.23 350.658 7234.7 326.026 7235 300.237V300.237V80.6493L7234.5 80.5863ZM6829.63 80.5863H6829V300.237C6829.33 326.048 6839.84 350.69 6858.26 368.825C6876.68 386.959 6901.51 397.127 6927.39 397.125H6928.02V178.67C6928.02 165.785 6925.48 153.025 6920.53 141.121C6915.59 129.217 6908.34 118.401 6899.2 109.292C6890.06 100.183 6879.22 92.9599 6867.28 88.0345C6855.34 83.109 6842.55 80.5781 6829.63 80.5863V80.5863Z" fill="#00223E"/>
                <path d="M6492.64 158.084V596H6491.94C6465.86 596 6440.84 585.668 6422.39 567.276C6403.94 548.883 6393.57 523.935 6393.55 497.916V60H6394.18C6420.27 60 6445.3 70.3298 6463.76 88.7205C6482.22 107.111 6492.6 132.059 6492.64 158.084V158.084ZM6645.5 80.5863C6619.41 80.5863 6594.39 90.9181 6575.94 109.311C6557.49 127.703 6547.12 152.651 6547.1 178.67V397.125H6547.8C6573.65 397.11 6598.46 386.931 6616.84 368.795C6635.23 350.658 6645.7 326.026 6646 300.237V300.237V80.6493L6645.5 80.5863ZM6240.63 80.5863H6240V300.237C6240.33 326.048 6250.84 350.69 6269.26 368.825C6287.68 386.959 6312.51 397.127 6338.39 397.125H6339.02V178.67C6339.02 165.785 6336.48 153.025 6331.53 141.121C6326.59 129.217 6319.34 118.401 6310.2 109.292C6301.06 100.183 6290.22 92.9599 6278.28 88.0345C6266.34 83.109 6253.55 80.5781 6240.63 80.5863V80.5863Z" fill="#00223E"/>
                <path d="M5903.64 158.084V596H5902.94C5876.86 596 5851.84 585.668 5833.39 567.276C5814.94 548.883 5804.57 523.935 5804.55 497.916V60H5805.18C5831.27 60 5856.3 70.3298 5874.76 88.7205C5893.22 107.111 5903.6 132.059 5903.64 158.084V158.084ZM6056.5 80.5863C6030.41 80.5863 6005.39 90.9181 5986.94 109.311C5968.49 127.703 5958.12 152.651 5958.1 178.67V397.125H5958.8C5984.65 397.11 6009.46 386.931 6027.84 368.795C6046.23 350.658 6056.7 326.026 6057 300.237V300.237V80.6493L6056.5 80.5863ZM5651.63 80.5863H5651V300.237C5651.33 326.048 5661.84 350.69 5680.26 368.825C5698.68 386.959 5723.51 397.127 5749.39 397.125H5750.02V178.67C5750.02 165.785 5747.48 153.025 5742.53 141.121C5737.59 129.217 5730.34 118.401 5721.2 109.292C5712.06 100.183 5701.22 92.9599 5689.28 88.0345C5677.34 83.109 5664.55 80.5781 5651.63 80.5863V80.5863Z" fill="#00223E"/>
                <path d="M5314.64 158.084V596H5313.94C5287.86 596 5262.84 585.668 5244.39 567.276C5225.94 548.883 5215.57 523.935 5215.55 497.916V60H5216.18C5242.27 60 5267.3 70.3298 5285.76 88.7205C5304.22 107.111 5314.6 132.059 5314.64 158.084V158.084ZM5467.5 80.5863C5441.41 80.5863 5416.39 90.9181 5397.94 109.311C5379.49 127.703 5369.12 152.651 5369.1 178.67V397.125H5369.8C5395.65 397.11 5420.46 386.931 5438.84 368.795C5457.23 350.658 5467.7 326.026 5468 300.237V300.237V80.6493L5467.5 80.5863ZM5062.63 80.5863H5062V300.237C5062.33 326.048 5072.84 350.69 5091.26 368.825C5109.68 386.959 5134.51 397.127 5160.39 397.125H5161.02V178.67C5161.02 165.785 5158.48 153.025 5153.53 141.121C5148.59 129.217 5141.34 118.401 5132.2 109.292C5123.06 100.183 5112.22 92.9599 5100.28 88.0345C5088.34 83.109 5075.55 80.5781 5062.63 80.5863V80.5863Z" fill="#00223E"/>
                <path d="M4725.64 158.084V596H4724.94C4698.86 596 4673.84 585.668 4655.39 567.276C4636.94 548.883 4626.57 523.935 4626.55 497.916V60H4627.18C4653.27 60 4678.3 70.3298 4696.76 88.7205C4715.22 107.111 4725.6 132.059 4725.64 158.084V158.084ZM4878.5 80.5863C4852.41 80.5863 4827.39 90.9181 4808.94 109.311C4790.49 127.703 4780.12 152.651 4780.1 178.67V397.125H4780.8C4806.65 397.11 4831.46 386.931 4849.84 368.795C4868.23 350.658 4878.7 326.026 4879 300.237V300.237V80.6493L4878.5 80.5863ZM4473.63 80.5863H4473V300.237C4473.33 326.048 4483.84 350.69 4502.26 368.825C4520.68 386.959 4545.51 397.127 4571.39 397.125H4572.02V178.67C4572.02 165.785 4569.48 153.025 4564.53 141.121C4559.59 129.217 4552.34 118.401 4543.2 109.292C4534.06 100.183 4523.22 92.9599 4511.28 88.0345C4499.34 83.109 4486.55 80.5781 4473.63 80.5863V80.5863Z" fill="#00223E"/>
                <path d="M4136.64 158.084V596H4135.94C4109.86 596 4084.84 585.668 4066.39 567.276C4047.94 548.883 4037.57 523.935 4037.55 497.916V60H4038.18C4064.27 60 4089.3 70.3298 4107.76 88.7205C4126.22 107.111 4136.6 132.059 4136.64 158.084V158.084ZM4289.5 80.5863C4263.41 80.5863 4238.39 90.9181 4219.94 109.311C4201.49 127.703 4191.12 152.651 4191.1 178.67V397.125H4191.8C4217.65 397.11 4242.46 386.931 4260.84 368.795C4279.23 350.658 4289.7 326.026 4290 300.237V300.237V80.6493L4289.5 80.5863ZM3884.63 80.5863H3884V300.237C3884.33 326.048 3894.84 350.69 3913.26 368.825C3931.68 386.959 3956.51 397.127 3982.39 397.125H3983.02V178.67C3983.02 165.785 3980.48 153.025 3975.53 141.121C3970.59 129.217 3963.34 118.401 3954.2 109.292C3945.06 100.183 3934.22 92.9599 3922.28 88.0345C3910.34 83.109 3897.55 80.5781 3884.63 80.5863V80.5863Z" fill="#00223E"/>
                <path d="M3547.64 158.084V596H3546.94C3520.86 596 3495.84 585.668 3477.39 567.276C3458.94 548.883 3448.57 523.935 3448.55 497.916V60H3449.18C3475.27 60 3500.3 70.3298 3518.76 88.7205C3537.22 107.111 3547.6 132.059 3547.64 158.084V158.084ZM3700.5 80.5863C3674.41 80.5863 3649.39 90.9181 3630.94 109.311C3612.49 127.703 3602.12 152.651 3602.1 178.67V397.125H3602.8C3628.65 397.11 3653.46 386.931 3671.84 368.795C3690.23 350.658 3700.7 326.026 3701 300.237V300.237V80.6493L3700.5 80.5863ZM3295.63 80.5863H3295V300.237C3295.33 326.048 3305.84 350.69 3324.26 368.825C3342.68 386.959 3367.51 397.127 3393.39 397.125H3394.02V178.67C3394.02 165.785 3391.48 153.025 3386.53 141.121C3381.59 129.217 3374.34 118.401 3365.2 109.292C3356.06 100.183 3345.22 92.9599 3333.28 88.0345C3321.34 83.109 3308.55 80.5781 3295.63 80.5863V80.5863Z" fill="#00223E"/>
                <path d="M2958.64 158.084V596H2957.94C2931.86 596 2906.84 585.668 2888.39 567.276C2869.94 548.883 2859.57 523.935 2859.55 497.916V60H2860.18C2886.27 60 2911.3 70.3298 2929.76 88.7205C2948.22 107.111 2958.6 132.059 2958.64 158.084V158.084ZM3111.5 80.5863C3085.41 80.5863 3060.39 90.9181 3041.94 109.311C3023.49 127.703 3013.12 152.651 3013.1 178.67V397.125H3013.8C3039.65 397.11 3064.46 386.931 3082.84 368.795C3101.23 350.658 3111.7 326.026 3112 300.237V300.237V80.6493L3111.5 80.5863ZM2706.63 80.5863H2706V300.237C2706.33 326.048 2716.84 350.69 2735.26 368.825C2753.68 386.959 2778.51 397.127 2804.39 397.125H2805.02V178.67C2805.02 165.785 2802.48 153.025 2797.53 141.121C2792.59 129.217 2785.34 118.401 2776.2 109.292C2767.06 100.183 2756.22 92.9599 2744.28 88.0345C2732.34 83.109 2719.55 80.5781 2706.63 80.5863V80.5863Z" fill="#00223E"/>
                <path d="M2369.64 158.084V596H2368.94C2342.86 596 2317.84 585.668 2299.39 567.276C2280.94 548.883 2270.57 523.935 2270.55 497.916V60H2271.18C2297.27 60 2322.3 70.3298 2340.76 88.7205C2359.22 107.111 2369.6 132.059 2369.64 158.084V158.084ZM2522.5 80.5863C2496.41 80.5863 2471.39 90.9181 2452.94 109.311C2434.49 127.703 2424.12 152.651 2424.1 178.67V397.125H2424.8C2450.65 397.11 2475.46 386.931 2493.84 368.795C2512.23 350.658 2522.7 326.026 2523 300.237V300.237V80.6493L2522.5 80.5863ZM2117.63 80.5863H2117V300.237C2117.33 326.048 2127.84 350.69 2146.26 368.825C2164.68 386.959 2189.51 397.127 2215.39 397.125H2216.02V178.67C2216.02 165.785 2213.48 153.025 2208.53 141.121C2203.59 129.217 2196.34 118.401 2187.2 109.292C2178.06 100.183 2167.22 92.9599 2155.28 88.0345C2143.34 83.109 2130.55 80.5781 2117.63 80.5863V80.5863Z" fill="#00223E"/>
                <path d="M1780.64 158.084V596H1779.94C1753.86 596 1728.84 585.668 1710.39 567.276C1691.94 548.883 1681.57 523.935 1681.55 497.916V60H1682.18C1708.27 60 1733.3 70.3298 1751.76 88.7205C1770.22 107.111 1780.6 132.059 1780.64 158.084V158.084ZM1933.5 80.5863C1907.41 80.5863 1882.39 90.9181 1863.94 109.311C1845.49 127.703 1835.12 152.651 1835.1 178.67V397.125H1835.8C1861.65 397.11 1886.46 386.931 1904.84 368.795C1923.23 350.658 1933.7 326.026 1934 300.237V300.237V80.6493L1933.5 80.5863ZM1528.63 80.5863H1528V300.237C1528.33 326.048 1538.84 350.69 1557.26 368.825C1575.68 386.959 1600.51 397.127 1626.39 397.125H1627.02V178.67C1627.02 165.785 1624.48 153.025 1619.53 141.121C1614.59 129.217 1607.34 118.401 1598.2 109.292C1589.06 100.183 1578.22 92.9599 1566.28 88.0345C1554.34 83.109 1541.55 80.5781 1528.63 80.5863V80.5863Z" fill="#00223E"/>
                <path d="M1191.64 158.084V596H1190.94C1164.86 596 1139.84 585.668 1121.39 567.276C1102.94 548.883 1092.57 523.935 1092.55 497.916V60H1093.18C1119.27 60 1144.3 70.3298 1162.76 88.7205C1181.22 107.111 1191.6 132.059 1191.64 158.084V158.084ZM1344.5 80.5863C1318.41 80.5863 1293.39 90.9181 1274.94 109.311C1256.49 127.703 1246.12 152.651 1246.1 178.67V397.125H1246.8C1272.65 397.11 1297.46 386.931 1315.84 368.795C1334.23 350.658 1344.7 326.026 1345 300.237V300.237V80.6493L1344.5 80.5863ZM939.631 80.5863H939V300.237C939.332 326.048 949.845 350.69 968.261 368.825C986.677 386.959 1011.51 397.127 1037.39 397.125H1038.02V178.67C1038.02 165.785 1035.48 153.025 1030.53 141.121C1025.59 129.217 1018.34 118.401 1009.2 109.292C1000.06 100.183 989.216 92.9599 977.279 88.0345C965.342 83.109 952.549 80.5781 939.631 80.5863V80.5863Z" fill="#00223E"/>
                <path d="M602.638 158.084V596H601.943C575.859 596 550.842 585.668 532.392 567.276C513.942 548.883 503.568 523.935 503.552 497.916V60H504.183C530.273 60 555.296 70.3298 573.756 88.7205C592.217 107.111 602.604 132.059 602.638 158.084V158.084ZM755.495 80.5863C729.411 80.5863 704.394 90.9181 685.944 109.311C667.494 127.703 657.12 152.651 657.103 178.67V397.125H657.798C683.653 397.11 708.46 386.931 726.843 368.795C745.225 350.658 755.701 326.026 756 300.237V300.237V80.6493L755.495 80.5863ZM350.631 80.5863H350V300.237C350.332 326.048 360.845 350.69 379.261 368.825C397.677 386.959 422.514 397.127 448.392 397.125H449.023V178.67C449.023 165.785 446.477 153.025 441.532 141.121C436.587 129.217 429.338 118.401 420.201 109.292C411.063 100.183 400.216 92.9599 388.279 88.0345C376.342 83.109 363.549 80.5781 350.631 80.5863V80.5863Z" fill="#00223E"/>
                <path d="M13.6376 158.084V596H12.9434C-13.1408 596 -38.1575 585.668 -56.6077 567.276C-75.058 548.883 -85.4316 523.935 -85.4483 497.916V60H-84.8172C-58.7272 60 -33.7039 70.3298 -15.2437 88.7205C3.21656 107.111 13.6042 132.059 13.6376 158.084V158.084ZM166.495 80.5863C140.411 80.5863 115.394 90.9181 96.944 109.311C78.4938 127.703 68.1201 152.651 68.1034 178.67V397.125H68.7976C94.6527 397.11 119.46 386.931 137.843 368.795C156.225 350.658 166.701 326.026 167 300.237V300.237V80.6493L166.495 80.5863ZM-238.369 80.5863H-239V300.237C-238.668 326.048 -228.155 350.69 -209.739 368.825C-191.323 386.959 -166.486 397.127 -140.608 397.125H-139.977V178.67C-139.977 165.785 -142.523 153.025 -147.468 141.121C-152.413 129.217 -159.662 118.401 -168.799 109.292C-177.937 100.183 -188.784 92.9599 -200.721 88.0345C-212.658 83.109 -225.451 80.5781 -238.369 80.5863V80.5863Z" fill="#00223E"/>
</svg>
