<svg id="Layer_2" data-name="Layer 2" xmlns="http://www.w3.org/2000/svg" viewBox="0 0 289.06 289.06">
    <defs>
        <style>.cls-1{fill:#ffffff;}</style>
    </defs>
    <path class="cls-1"
          d="M252,140.68,237.27,126H123.68V348.62c0,20.61,13.32,33.94,33.94,33.94h61.86L252,415l32.48-32.48h61.86c20.62,0,33.94-13.33,33.94-33.94V126H266.66Zm-80.49,61.63h-.1A15.56,15.56,0,0,1,155.82,187h0V152.11h.1a15.57,15.57,0,0,1,15.57,15.57Zm24.3,31.56h-.1a15.57,15.57,0,0,1-15.57-15.57V148.84h.1a15.58,15.58,0,0,1,15.57,15.57ZM219.08,187h0a15.56,15.56,0,0,1-15.56,15.37h-.1V167.67A15.57,15.57,0,0,1,219,152.1h.1Zm35.38,6.92h57.9v57.91h-57.9Zm31.2-5h-7.54l34.24-34.24v7.54Zm26.7-20.95v7.53l-13.42,13.42h-7.53Zm-40,20.95h-7.54l47.53-47.52v7.53Zm13.29,125.79h-7.54l34.24-34.24V288Zm26.7-20.95v7.53l-13.42,13.42h-7.53Zm-40,20.95h-7.54l47.53-47.52v7.53Zm-13.28,0h-4.63v-3.18l54.73-54.72h3.17v4.63Zm23.26-57.9h7.81l-35.7,35.69v-7.81ZM254.46,278.9v-8l14.08-14.08h8.06Zm41.44-22.13h7.54l-49,49v-7.53Zm-33.11,0-8.33,8.33v-8.33Zm49.57,120.79h-30l-27.92,27.92V319.66h57.9Zm-7.67-62.89,7.67-7.67v7.67ZM353.06,377l21.62-21.61C372.56,367.1,364.79,374.87,353.06,377Zm22.2-28.36c0,.14,0,.28,0,.42l-28.52,28.52h-7.54l36.07-36.07Zm0-12.87-41.82,41.81H325.9l49.36-49.35Zm0-84h-7.67l7.67-7.67Zm0-13.42-13.42,13.42H354.3l21-21Zm0-13.29-26.71,26.71H341l34.25-34.24Zm0-13.28-40,40h-7.54l47.53-47.53ZM317.36,131h57.9v57.9h-57.9Zm0,62.89h8.33l-8.33,8.34Zm0,14.08,14.08-14.08h8.06L317.36,216Zm0,13.81,27.89-27.89h7.8l-35.69,35.69Zm0,13.55,41.44-41.44h7.54l-49,49Zm0,13.29,54.73-54.73h3.17v4.63L322,251.78h-4.62Zm0,8.17h57.9v57.9h-57.9Zm0,62.89h6.5l-6.5,6.5Zm0,12.25,12.25-12.25h8.06L317.36,340Zm0,13.81,26.05-26.06h7.81l-33.86,33.86Zm0,13.55L357,319.66h7.54l-47.15,47.15Zm0,13.29,52.9-52.9h5v2.8l-55.11,55.1h-2.79ZM304.69,188.88l7.67-7.67v7.67Zm7.67-57.9v4.63l-53.27,53.27h-4.63V185.7L309.19,131Zm-8.92,0-49,49v-7.53L295.91,131Zm-13.28,0-35.7,35.69v-7.81L282.35,131Zm-13.56,0-22.14,22.13v-7.87L268.72,131Z"
          transform="translate(-123.68 -125.99)"/>
</svg>