<svg id="Layer_2" data-name="Layer 2" xmlns="http://www.w3.org/2000/svg" viewBox="0 0 642.63 293.5">
    <defs>
        <style>.cls-1{fill:#ffffff;}</style>
    </defs>
    <path class="cls-1" d="M409.75,127.52h5.46l6,9.72,6.05-9.72h5.46v23h-5v-15l-6.48,9.83h-.13l-6.41-9.73v14.92h-5Z"
          transform="translate(-123.63 -120.25)"/>
    <path class="cls-1"
          d="M436.59,139a12.23,12.23,0,1,1,12.19,11.9A11.9,11.9,0,0,1,436.59,139Zm19.16,0a7,7,0,0,0-7-7.23,6.9,6.9,0,0,0-6.9,7.23,7,7,0,0,0,7,7.23A6.9,6.9,0,0,0,455.75,139Z"
          transform="translate(-123.63 -120.25)"/>
    <path class="cls-1"
          d="M464,139a11.7,11.7,0,0,1,12-11.9,11.54,11.54,0,0,1,8.9,3.75l-3,3.48c-1.78-1.61-3.29-2.56-5.92-2.56-3.88,0-6.67,3.22-6.67,7.23s2.73,7.23,6.67,7.23c2.63,0,4.24-1.05,6.05-2.7L485.2,147c-2.37,2.53-5,3.91-9.43,3.91A11.63,11.63,0,0,1,464,139Z"
          transform="translate(-123.63 -120.25)"/>
    <path class="cls-1"
          d="M488.74,127.52h5.07v10l9.33-10h6.12l-9.37,9.76,9.79,13.24H503.6l-7.13-9.79-2.66,2.76v7h-5.07Z"
          transform="translate(-123.63 -120.25)"/>
    <path class="cls-1"
          d="M509.76,139A12.23,12.23,0,1,1,522,150.92,11.9,11.9,0,0,1,509.76,139Zm19.16,0a7,7,0,0,0-7-7.23,6.9,6.9,0,0,0-6.9,7.23,7,7,0,0,0,7,7.23A6.9,6.9,0,0,0,528.92,139Z"
          transform="translate(-123.63 -120.25)"/>
    <path class="cls-1"
          d="M538.11,127.52H548.8a8.3,8.3,0,0,1,6,2,5.67,5.67,0,0,1-1.44,8.94c2.66,1,4.3,2.57,4.3,5.72,0,4.21-3.42,6.31-8.61,6.31H538.11Zm9.6,9.3c2.24,0,3.65-.73,3.65-2.5,0-1.51-1.18-2.37-3.32-2.37h-5v4.87Zm1.35,9.27c2.24,0,3.58-.79,3.58-2.57,0-1.54-1.15-2.5-3.74-2.5h-5.85v5.07Z"
          transform="translate(-123.63 -120.25)"/>
    <path class="cls-1"
          d="M560.3,139a11.7,11.7,0,0,1,12-11.9,11.57,11.57,0,0,1,8.91,3.75l-3,3.48a7.94,7.94,0,0,0-5.91-2.56c-3.88,0-6.67,3.22-6.67,7.23s2.72,7.23,6.67,7.23c2.63,0,4.24-1.05,6.05-2.7l3.22,3.46c-2.37,2.53-5,3.91-9.44,3.91A11.63,11.63,0,0,1,560.3,139Z"
          transform="translate(-123.63 -120.25)"/>
    <path class="cls-1"
          d="M585.43,127.52h5.06v10l9.34-10h6.11l-9.36,9.76,9.79,13.24h-6.08l-7.13-9.79-2.67,2.76v7h-5.06Z"
          transform="translate(-123.63 -120.25)"/>
    <path class="cls-1" d="M629.56,150.52h-5V135.44L614.5,150.52h-4.76v-23h5V142.6l10.12-15.08h4.7Z"
          transform="translate(-123.63 -120.25)"/>
    <path class="cls-1"
          d="M654.53,150.52h-5V135.44l-10.06,15.08h-4.76v-23h5V142.6l10.13-15.08h4.7Zm-15.35-29.74,2.92-.53a2.64,2.64,0,0,0,5.2,0l2.92.53c-.46,3.15-2.5,5-5.52,5S639.64,123.93,639.18,120.78Z"
          transform="translate(-123.63 -120.25)"/>
    <path class="cls-1" d="M414.81,190h-5.06V167h16.07v4.57h-11Z" transform="translate(-123.63 -120.25)"/>
    <path class="cls-1"
          d="M427.2,178.46a12.23,12.23,0,1,1,12.2,11.89A11.89,11.89,0,0,1,427.2,178.46Zm19.16,0a7,7,0,0,0-7-7.24,6.91,6.91,0,0,0-6.91,7.24,7,7,0,0,0,7,7.23A6.89,6.89,0,0,0,446.36,178.46Z"
          transform="translate(-123.63 -120.25)"/>
    <path class="cls-1"
          d="M454.44,178.46a12.14,12.14,0,0,1,20.9-8.16l-3,3.49c-1.78-1.61-3.29-2.57-5.92-2.57-3.88,0-6.67,3.23-6.67,7.24s2.73,7.23,6.67,7.23c2.63,0,4.24-1.06,6.05-2.7l3.22,3.45c-2.37,2.53-5,3.91-9.43,3.91A11.62,11.62,0,0,1,454.44,178.46Z"
          transform="translate(-123.63 -120.25)"/>
    <path class="cls-1"
          d="M495.25,167h5.49l-8.84,17.78c-2,4-4.31,5.59-7.53,5.59a9.65,9.65,0,0,1-5-1.35l2-3.71a5.13,5.13,0,0,0,2.73.76,3.43,3.43,0,0,0,2.89-1.85L477.8,167h5.65l6.25,12.16Z"
          transform="translate(-123.63 -120.25)"/>
    <path class="cls-1"
          d="M535.56,166.79h4.67L550.09,190H544.8l-2.1-5.16H533L530.86,190H525.7Zm5.33,13.54-3.06-7.46-3.06,7.46Z"
          transform="translate(-123.63 -120.25)"/>
    <path class="cls-1"
          d="M552.85,167h9.4c5.49,0,8.81,3.26,8.81,8,0,5.33-4.14,8.09-9.31,8.09h-3.84V190h-5.06Zm9.07,11.6c2.53,0,4-1.51,4-3.55,0-2.26-1.58-3.48-4.11-3.48h-3.91v7Z"
          transform="translate(-123.63 -120.25)"/>
    <path class="cls-1"
          d="M573.6,178.46a12.14,12.14,0,0,1,20.9-8.16l-3,3.49c-1.78-1.61-3.29-2.57-5.92-2.57-3.88,0-6.67,3.23-6.67,7.24s2.73,7.23,6.67,7.23c2.63,0,4.24-1.06,6.05-2.7l3.22,3.45c-2.37,2.53-5,3.91-9.43,3.91A11.62,11.62,0,0,1,573.6,178.46Z"
          transform="translate(-123.63 -120.25)"/>
    <path class="cls-1" d="M604,171.62h-7V167H616.1v4.67h-7V190H604Z" transform="translate(-123.63 -120.25)"/>
    <path class="cls-1"
          d="M620.14,167h10.68a8.31,8.31,0,0,1,6,2,5.67,5.67,0,0,1-1.44,8.94c2.66,1,4.3,2.56,4.3,5.72,0,4.21-3.42,6.31-8.61,6.31H620.14Zm9.59,9.3c2.24,0,3.65-.72,3.65-2.49,0-1.52-1.18-2.37-3.32-2.37h-5v4.86Zm1.35,9.27c2.24,0,3.58-.79,3.58-2.56,0-1.55-1.15-2.5-3.74-2.5h-5.85v5.06Z"
          transform="translate(-123.63 -120.25)"/>
    <path class="cls-1" d="M643.55,167H660.9v4.51H648.58v4.66h10.84v4.5H648.58v4.84h12.49V190H643.55Z"
          transform="translate(-123.63 -120.25)"/>
    <path class="cls-1" d="M665.67,167h5.06v9.11h9.33V167h5.07v23h-5.07v-9.24h-9.33V190h-5.06Z"
          transform="translate(-123.63 -120.25)"/>
    <path class="cls-1" d="M690.53,167h5.06v9.11h9.34V167H710v23h-5.06v-9.24h-9.34V190h-5.06Z"
          transform="translate(-123.63 -120.25)"/>
    <path class="cls-1"
          d="M715.28,167h5.06v7.83h4.9c5.32,0,8.41,2.95,8.41,7.46,0,4.73-3.35,7.72-8.74,7.72h-9.63Zm5.06,12.16v6.28h4.5c2.5,0,3.78-1.08,3.78-3.22,0-1.94-1.28-3.06-3.81-3.06ZM736.22,167h5.06v23h-5.06Z"
          transform="translate(-123.63 -120.25)"/>
    <path class="cls-1"
          d="M766.25,190h-5V174.87L751.2,190h-4.76V167h5V182L761.56,167h4.69Zm-15.34-29.75,2.92-.52a2.63,2.63,0,0,0,5.19,0l2.93.52c-.46,3.16-2.5,5-5.52,5S751.37,163.37,750.91,160.21Z"
          transform="translate(-123.63 -120.25)"/>
    <path class="cls-1" d="M409.75,206.39h19.19v23h-5.06V211h-9.07V229.4h-5.06Z"
          transform="translate(-123.63 -120.25)"/>
    <path class="cls-1"
          d="M432.68,217.89a12.14,12.14,0,0,1,20.9-8.15l-3,3.49c-1.78-1.61-3.29-2.57-5.92-2.57-3.88,0-6.67,3.22-6.67,7.23s2.73,7.23,6.67,7.23c2.63,0,4.24-1.05,6.05-2.69l3.22,3.45c-2.37,2.53-5,3.91-9.43,3.91A11.63,11.63,0,0,1,432.68,217.89Z"
          transform="translate(-123.63 -120.25)"/>
    <path class="cls-1" d="M477.17,229.4h-5V214.31L462.12,229.4h-4.77v-23h5v15.09l10.12-15.09h4.7Z"
          transform="translate(-123.63 -120.25)"/>
    <path class="cls-1"
          d="M489,217.7l-7.7-11.31h5.92l4.83,7.46,4.87-7.46h5.75l-7.69,11.24,8,11.77H497l-5.16-7.89-5.19,7.89h-5.75Z"
          transform="translate(-123.63 -120.25)"/>
    <path class="cls-1"
          d="M503.79,217.89a12.23,12.23,0,1,1,12.2,11.9A11.89,11.89,0,0,1,503.79,217.89Zm19.16,0a7,7,0,0,0-7-7.23,6.9,6.9,0,0,0-6.91,7.23,7,7,0,0,0,7,7.23A6.89,6.89,0,0,0,523,217.89Z"
          transform="translate(-123.63 -120.25)"/>
    <path class="cls-1"
          d="M550.87,206.39v23H545.8V211h-6.63v1.74c0,13.54-2.21,17-7.47,17a13.29,13.29,0,0,1-2.66-.29l.33-4.18a4.28,4.28,0,0,0,.79.07c2.73,0,4.27-1.74,4.27-14.13v-4.77Z"
          transform="translate(-123.63 -120.25)"/>
    <path class="cls-1"
          d="M554.54,217.89a12.23,12.23,0,1,1,12.19,11.9A11.89,11.89,0,0,1,554.54,217.89Zm19.16,0a7,7,0,0,0-7-7.23,6.9,6.9,0,0,0-6.9,7.23,7,7,0,0,0,7,7.23A6.9,6.9,0,0,0,573.7,217.89Z"
          transform="translate(-123.63 -120.25)"/>
    <path class="cls-1" d="M587.84,229.4h-5.06v-23h16.07V211h-11Z" transform="translate(-123.63 -120.25)"/>
    <path class="cls-1"
          d="M599.46,217.89a12.23,12.23,0,1,1,12.19,11.9A11.89,11.89,0,0,1,599.46,217.89Zm19.16,0a7,7,0,0,0-7-7.23,6.9,6.9,0,0,0-6.9,7.23,7,7,0,0,0,7,7.23A6.9,6.9,0,0,0,618.62,217.89Z"
          transform="translate(-123.63 -120.25)"/>
    <path class="cls-1" d="M628.49,216.81h10.12v4.8H628.49Z" transform="translate(-123.63 -120.25)"/>
    <path class="cls-1" d="M409.75,245.83h19.19v23h-5.06V250.4h-9.07v18.43h-5.06Z"
          transform="translate(-123.63 -120.25)"/>
    <path class="cls-1" d="M434.07,245.83h17.35v4.5H439.09V255h10.85v4.5H439.09v4.83h12.49v4.5H434.07Z"
          transform="translate(-123.63 -120.25)"/>
    <path class="cls-1"
          d="M454.46,264.27h2.17c1.71-4,2.53-7.89,2.53-15.75v-2.69h16.73v18.44h2.76l-.66,9.36h-4.24v-4.8H459.36l-.33,4.8h-4.57ZM464,250.4v2.33A29,29,0,0,1,462,264.27h8.87V250.4Z"
          transform="translate(-123.63 -120.25)"/>
    <path class="cls-1"
          d="M490.14,245.66h4.67l9.86,23.17h-5.29l-2.1-5.16h-9.73l-2.11,5.16h-5.16Zm5.33,13.54-3.06-7.46-3.05,7.46Z"
          transform="translate(-123.63 -120.25)"/>
    <path class="cls-1" d="M512.42,268.83h-5.07v-23h16.07v4.57h-11Z" transform="translate(-123.63 -120.25)"/>
    <path class="cls-1"
          d="M524.11,257.33a12.23,12.23,0,1,1,12.19,11.9A11.9,11.9,0,0,1,524.11,257.33Zm19.16,0a7,7,0,0,0-7-7.23,6.89,6.89,0,0,0-6.9,7.23,7,7,0,0,0,7,7.23A6.9,6.9,0,0,0,543.27,257.33Z"
          transform="translate(-123.63 -120.25)"/>
    <path class="cls-1" d="M557.41,268.83h-5.06v-23h16.07v4.57h-11Z" transform="translate(-123.63 -120.25)"/>
    <path class="cls-1" d="M591.85,268.83h-5V253.75l-10.06,15.08H572v-23h5v15.08l10.13-15.08h4.7Z"
          transform="translate(-123.63 -120.25)"/>
    <path class="cls-1"
          d="M610.4,260.26a14.28,14.28,0,0,1-6.08,1.7c-4.57,0-7.72-2.39-7.72-7.72v-8.41h5.06v6.93c0,2.86,1.12,4.47,3.71,4.47a8.71,8.71,0,0,0,5-1.48v-9.92h5.06v23H610.4Z"
          transform="translate(-123.63 -120.25)"/>
    <path class="cls-1" d="M620.92,245.83h17.35v4.5H626V255h10.84v4.5H626v4.83h12.49v4.5H620.92Z"
          transform="translate(-123.63 -120.25)"/>
    <path class="cls-1"
          d="M641.16,257.33a12.14,12.14,0,0,1,20.91-8.15l-3,3.48a8,8,0,0,0-5.92-2.56c-3.87,0-6.67,3.22-6.67,7.23s2.73,7.23,6.67,7.23c2.63,0,4.24-1.05,6-2.69l3.22,3.45c-2.36,2.53-5,3.91-9.43,3.91A11.63,11.63,0,0,1,641.16,257.33Z"
          transform="translate(-123.63 -120.25)"/>
    <path class="cls-1"
          d="M665.65,245.83h5.07v10l9.33-10h6.11l-9.36,9.76,9.79,13.24h-6.08L673.38,259l-2.66,2.76v7h-5.07Z"
          transform="translate(-123.63 -120.25)"/>
    <path class="cls-1" d="M709.21,268.83h-5V253.75l-10.06,15.08h-4.77v-23h5v15.08l10.12-15.08h4.7Z"
          transform="translate(-123.63 -120.25)"/>
    <path class="cls-1"
          d="M734.44,268.83h-5V253.75l-10.05,15.08h-4.77v-23h5v15.08l10.12-15.08h4.7Zm-15.35-29.74,2.92-.53a2.63,2.63,0,0,0,5.2,0l2.92.53c-.46,3.15-2.49,5-5.52,5S719.55,242.24,719.09,239.09Z"
          transform="translate(-123.63 -120.25)"/>
    <path class="cls-1"
          d="M425,285.26h5.49L421.68,303c-2,4-4.31,5.59-7.53,5.59a9.65,9.65,0,0,1-5-1.34l2-3.72a5.13,5.13,0,0,0,2.73.76,3.43,3.43,0,0,0,2.89-1.84l-9.2-17.23h5.65l6.25,12.16Z"
          transform="translate(-123.63 -120.25)"/>
    <path class="cls-1" d="M433.52,285.26h5.06v9.11h9.34v-9.11H453v23h-5.06V299h-9.34v9.23h-5.06Z"
          transform="translate(-123.63 -120.25)"/>
    <path class="cls-1" d="M478.42,308.27h-5V293.19l-10.06,15.08H458.6v-23h5v15.09l10.13-15.09h4.7Z"
          transform="translate(-123.63 -120.25)"/>
    <path class="cls-1"
          d="M484.13,285.26h10.68a8.35,8.35,0,0,1,6,2,5.66,5.66,0,0,1-1.45,8.94c2.67,1,4.31,2.56,4.31,5.72,0,4.21-3.42,6.31-8.61,6.31H484.13Zm9.6,9.31c2.23,0,3.65-.73,3.65-2.5,0-1.51-1.19-2.37-3.32-2.37h-5v4.87Zm1.35,9.26c2.23,0,3.58-.79,3.58-2.56,0-1.54-1.15-2.5-3.75-2.5h-5.85v5.06Z"
          transform="translate(-123.63 -120.25)"/>
    <path class="cls-1" d="M507.83,285.26h17.35v4.51H512.86v4.66H523.7v4.51H512.86v4.83h12.49v4.5H507.83Z"
          transform="translate(-123.63 -120.25)"/>
    <path class="cls-1"
          d="M530.16,285.26h9.4c5.49,0,8.81,3.26,8.81,8,0,5.33-4.14,8.09-9.3,8.09h-3.85v6.9h-5.06Zm9.07,11.61c2.53,0,4-1.52,4-3.55,0-2.27-1.57-3.49-4.1-3.49h-3.92v7Z"
          transform="translate(-123.63 -120.25)"/>
    <path class="cls-1"
          d="M551.12,296.77a11.69,11.69,0,0,1,12-11.9,11.57,11.57,0,0,1,8.91,3.75l-3,3.48c-1.78-1.61-3.29-2.56-5.92-2.56-3.88,0-6.67,3.22-6.67,7.23s2.73,7.23,6.67,7.23c2.63,0,4.24-1.05,6-2.7l3.22,3.45c-2.37,2.54-5,3.92-9.43,3.92A11.63,11.63,0,0,1,551.12,296.77Z"
          transform="translate(-123.63 -120.25)"/>
    <path class="cls-1" d="M595.45,308.27h-5V293.19L580.4,308.27h-4.77v-23h5v15.09l10.12-15.09h4.7Z"
          transform="translate(-123.63 -120.25)"/>
    <path class="cls-1" d="M606,289.93h-7v-4.67H618v4.67h-7v18.34H606Z" transform="translate(-123.63 -120.25)"/>
    <path class="cls-1" d="M621.5,285.26h17.35v4.51H626.52v4.66h10.85v4.51H626.52v4.83H639v4.5H621.5Z"
          transform="translate(-123.63 -120.25)"/>
    <path class="cls-1" d="M648.81,289.93h-7v-4.67h19.07v4.67h-7v18.34h-5.06Z" transform="translate(-123.63 -120.25)"/>
    <path class="cls-1"
          d="M499.78,185.39H502c1.71-4,2.53-7.89,2.53-15.74V167h16.73v18.44H524l-.65,9.37h-4.24V190h-14.4l-.33,4.8h-4.57Zm9.57-13.87v2.33a28.77,28.77,0,0,1-2.08,11.54h8.88V171.52Z"
          transform="translate(-123.63 -120.25)"/>
    <path class="cls-1"
          d="M251.91,139.39,237.22,124.7H123.63V347.33c0,20.62,13.32,33.94,33.94,33.94h61.86l32.48,32.49,32.48-32.49h61.86c20.62,0,33.94-13.32,33.94-33.94V124.7H266.6ZM171.42,201h-.1a15.57,15.57,0,0,1-15.56-15.37h0V150.83h.1a15.57,15.57,0,0,1,15.57,15.56Zm24.3,31.55h-.1A15.56,15.56,0,0,1,180.05,217V147.55h.1a15.57,15.57,0,0,1,15.57,15.58ZM219,185.67h0A15.56,15.56,0,0,1,203.45,201h-.1V166.38a15.57,15.57,0,0,1,15.57-15.56H219Zm35.38,6.92h57.9v57.9h-57.9Zm31.19-5h-7.54l34.25-34.24v7.53Zm26.71-21v7.54L298.89,187.6h-7.54Zm-40,21h-7.53l47.53-47.53v7.54ZM285.6,313.39h-7.54l34.25-34.24v7.53Zm26.71-21V300l-13.42,13.42h-7.54Zm-40,21h-7.53l47.53-47.53v7.54Zm-13.28,0h-4.62v-3.18l54.72-54.73h3.18v4.63Zm23.26-57.91h7.81l-35.69,35.69v-7.8Zm-27.88,22.14v-8.06l14.08-14.08h8.05Zm41.44-22.14h7.54l-49,49v-7.54Zm-33.11,0-8.33,8.33v-8.33Zm49.57,120.8h-30L254.41,404.2V318.38h57.9Zm-7.67-62.89,7.67-7.67v7.67ZM353,375.7l21.62-21.62C372.51,365.81,364.73,373.59,353,375.7Zm22.2-28.37c0,.14,0,.28,0,.42l-28.52,28.52h-7.54l36.07-36.07Zm0-12.87-41.82,41.82h-7.54l49.36-49.35Zm0-84h-7.67l7.67-7.67Zm0-13.42-13.42,13.42h-7.54l21-21Zm0-13.28-26.71,26.7H341l34.24-34.24Zm0-13.29-40,40h-7.54L375.2,203Zm-57.9-80.81h57.9V187.6H317.3Zm0,62.9h8.33l-8.33,8.33Zm0,14.08,14.08-14.08h8.06L317.3,214.73Zm0,13.8,27.89-27.88H353L317.3,228.28Zm0,13.56,41.44-41.44h7.54l-49,49Zm0,13.28L372,192.59h3.17v4.63l-53.28,53.27H317.3Zm0,8.17h57.9v57.91H317.3Zm0,62.9h6.5l-6.5,6.5Zm0,12.25,12.25-12.25h8.06l-20.31,20.3Zm0,13.8,26.06-26.05h7.8L317.3,352.24Zm0,13.56,39.61-39.61h7.54L317.3,365.52Zm0,13.28,52.9-52.89h5v2.8l-55.11,55.1H317.3ZM304.64,187.6l7.67-7.67v7.67Zm7.67-57.91v4.63L259,187.6h-4.62v-3.18l54.73-54.73Zm-8.92,0-49,49v-7.54l41.44-41.44Zm-13.29,0-35.69,35.69v-7.8l27.88-27.89Zm-13.55,0-22.14,22.14V144l14.26-14.27Z"
          transform="translate(-123.63 -120.25)"/>
</svg>